0
SECTION
2
HEADER
9
$INSUNITS
70
4
9
$ACADVER
1
AC1014
9
$HANDSEED
5
FFFF
0
ENDSEC
0
SECTION
2
TABLES
0
TABLE
2
VPORT
5
8
100
AcDbSymbolTable
0
ENDTAB
0
TABLE
2
LTYPE
5
5
100
AcDbSymbolTable
0
LTYPE
5
14
100
AcDbSymbolTableRecord
100
AcDbLinetypeTableRecord
2
BYBLOCK
70
0
0
LTYPE
5
15
100
AcDbSymbolTableRecord
100
AcDbLinetypeTableRecord
2
BYLAYER
70
0
0
LTYPE
5
16
100
AcDbSymbolTableRecord
100
AcDbLinetypeTableRecord
2
DASHED
70
0
3
Dashed __ __ __ __ __ __ __ __ __ __ __ __ __ _
72
65
73
2
40
0.75
49
0.5
74
0
49
-0.25
74
0
0
ENDTAB
0
TABLE
2
LAYER
5
2
100
AcDbSymbolTable
70
2
0
LAYER
5
50
100
AcDbSymbolTableRecord
100
AcDbLayerTableRecord
2
0
70
0
62
7
6
CONTINUOUS
0
ENDTAB
0
TABLE
2
STYLE
5
3
100
AcDbSymbolTable
70
1
0
STYLE
5
11
100
AcDbSymbolTableRecord
100
AcDbTextStyleTableRecord
2
STANDARD
70
0
0
ENDTAB
0
TABLE
2
VIEW
5
6
100
AcDbSymbolTable
70
0
0
ENDTAB
0
TABLE
2
UCS
5
7
100
AcDbSymbolTable
70
0
0
ENDTAB
0
TABLE
2
APPID
5
9
100
AcDbSymbolTable
70
2
0
APPID
5
12
100
AcDbSymbolTableRecord
100
AcDbRegAppTableRecord
2
ACAD
70
0
0
ENDTAB
0
TABLE
2
DIMSTYLE
5
A
100
AcDbSymbolTable
70
1
0
ENDTAB
0
TABLE
2
BLOCK_RECORD
5
1
100
AcDbSymbolTable
70
1
0
BLOCK_RECORD
5
1F
100
AcDbSymbolTableRecord
100
AcDbBlockTableRecord
2
*MODEL_SPACE
0
BLOCK_RECORD
5
1B
100
AcDbSymbolTableRecord
100
AcDbBlockTableRecord
2
*PAPER_SPACE
0
ENDTAB
0
ENDSEC
0
SECTION
2
BLOCKS
0
BLOCK
5
20
100
AcDbEntity
100
AcDbBlockBegin
2
*MODEL_SPACE
0
ENDBLK
5
21
100
AcDbEntity
100
AcDbBlockEnd
0
BLOCK
5
1C
100
AcDbEntity
100
AcDbBlockBegin
2
*PAPER_SPACE
0
ENDBLK
5
1D
100
AcDbEntity
100
AcDbBlockEnd
0
ENDSEC
0
SECTION
2
ENTITIES
0
ARC
5
100
100
AcDbEntity
8
0
100
AcDbCircle
10
-3.6496008358510923
20
-29.297494143018042
30
0
40
0.49999999999999101
210
0
220
-0
230
1
100
AcDbArc
50
65.197332255652412
51
187.48350666638362
6
DASHED
0
ARC
5
101
100
AcDbEntity
8
0
100
AcDbCircle
10
-3.8857805861880479e-15
20
-21.400000000000009
30
0
40
8.200000000002829
210
0
220
0
230
1
100
AcDbArc
50
-114.80266774434605
51
68.596650360509955
6
DASHED
0
ARC
5
102
100
AcDbEntity
8
0
100
AcDbCircle
10
3.1749015732913541
20
-13.299999999999399
30
0
40
0.50000000000000044
210
0
220
-0
230
1
100
AcDbArc
50
90
51
248.59665036050905
6
DASHED
0
LINE
5
103
100
AcDbEntity
8
0
100
AcDbLine
10
3.1749015732913541
20
-12.799999999999399
30
0
11
16.560525486551427
21
-12.799999999999399
31
0
6
DASHED
0
ARC
5
104
100
AcDbEntity
8
0
100
AcDbCircle
10
16.560525486551427
20
-13.299999999999399
30
0
40
0.500000000000002
210
-0
220
0
230
1
100
AcDbArc
50
-42.478919940779051
51
90
6
DASHED
0
ARC
5
105
100
AcDbEntity
8
0
100
AcDbCircle
10
19.400000000000148
20
-15.899977785959909
30
0
40
3.3500000000016801
210
0
220
0
230
1
100
AcDbArc
50
137.52108005922113
51
290.94699590838252
6
DASHED
0
ARC
5
106
100
AcDbEntity
8
0
100
AcDbCircle
10
20.776390957799645
20
-19.495537259991828
30
0
40
0.499999999999999
210
0
220
-0
230
1
100
AcDbArc
50
44.999999999989342
51
110.94699590838222
6
DASHED
0
LINE
5
107
100
AcDbEntity
8
0
100
AcDbLine
10
31.653553390593338
20
-29.665592911602971
30
0
11
21.129944348392982
21
-19.141983869398622
31
0
6
DASHED
0
ARC
5
108
100
AcDbEntity
8
0
100
AcDbCircle
10
31.299999999999997
20
-30.019146302196177
30
0
40
0.49999999999999378
210
0
220
-0
230
1
100
AcDbArc
50
0
51
44.999999999989065
6
DASHED
0
LINE
5
109
100
AcDbEntity
8
0
100
AcDbLine
10
31.799999999999994
20
-40.5868097230952
30
0
11
31.799999999999994
21
-30.019146302196166
31
0
6
DASHED
0
ARC
5
110
100
AcDbEntity
8
0
100
AcDbCircle
10
31.299999999999997
20
-40.5868097230952
30
0
40
0.50000000000001177
210
-0
220
0
230
1
100
AcDbArc
50
-30.000000000000934
51
0
6
DASHED
0
LINE
5
111
100
AcDbEntity
8
0
100
AcDbLine
10
28.802747561159183
20
-45.912177826492915
30
0
11
31.733012701892225
21
-40.836809723095215
31
0
6
DASHED
0
ARC
5
112
100
AcDbEntity
8
0
100
AcDbCircle
10
28.369734859266952
20
-45.662177826492901
30
0
40
0.50000000000002487
210
-0
220
0
230
1
100
AcDbArc
50
270.0000000000004
51
329.99999999999926
6
DASHED
0
LINE
5
113
100
AcDbEntity
8
0
100
AcDbLine
10
13.417862289004258
20
-46.162177826492908
30
0
11
28.369734859266956
21
-46.162177826492929
31
0
6
DASHED
0
ARC
5
114
100
AcDbEntity
8
0
100
AcDbCircle
10
13.417862289004258
20
-45.662177826492908
30
0
40
0.50000000000000511
210
0
220
0
230
1
100
AcDbArc
50
164.94534936001725
51
270
6
DASHED
0
ARC
5
115
100
AcDbEntity
8
0
100
AcDbCircle
10
9.699999999999994
20
-44.662177826492908
30
0
40
3.3500000000000001
210
-0
220
0
230
1
100
AcDbArc
50
-15.054650639982201
51
137.52063181595437
6
DASHED
0
ARC
5
116
100
AcDbEntity
8
0
100
AcDbCircle
10
6.8605458270998376
20
-42.062177826492928
30
0
40
0.49999999999999822
210
0
220
0
230
1
100
AcDbArc
50
270
51
317.52063181595503
6
DASHED
0
LINE
5
117
100
AcDbEntity
8
0
100
AcDbLine
10
-6.8800000000000043
20
-42.562177826492928
30
0
11
6.8605458270998376
21
-42.562177826492928
31
0
6
DASHED
0
ARC
5
118
100
AcDbEntity
8
0
100
AcDbCircle
10
-6.8800000000000043
20
-42.062177826492928
30
0
40
0.50000000000000044
210
0
220
0
230
1
100
AcDbArc
50
180
51
270
6
DASHED
0
LINE
5
119
100
AcDbEntity
8
0
100
AcDbLine
10
-7.3800000000000043
20
-39.743845346285113
30
0
11
-7.3800000000000043
21
-42.062177826492928
31
0
6
DASHED
0
ARC
5
120
100
AcDbEntity
8
0
100
AcDbCircle
10
-6.8800000000000079
20
-39.743845346285113
30
0
40
0.49999999999999534
210
0
220
0
230
1
100
AcDbArc
50
138.14939725902985
51
180
6
DASHED
0
ARC
5
121
100
AcDbEntity
8
0
100
AcDbCircle
10
-16.63802019664044
20
-31.00364844678883
30
0
40
12.600000000000271
210
-0
220
0
230
1
100
AcDbArc
50
-41.850602740971411
51
7.4835066663833363
6
DASHED
0
CIRCLE
5
122
100
AcDbEntity
8
0
100
AcDbCircle
10
8.749999705120004
20
-15.249999818799953
30
0
40
1.0749999999999997
210
0
220
-0
230
1
6
DASHED
0
CIRCLE
5
123
100
AcDbEntity
8
0
100
AcDbCircle
10
15.483273705120109
20
-43.666725818799947
30
0
40
1.0749999999999997
210
0
220
-0
230
1
6
DASHED
0
CIRCLE
5
124
100
AcDbEntity
8
0
100
AcDbCircle
10
15.483273705120109
20
-43.666725818799947
30
0
40
1.25
210
0
220
0
230
1
0
CIRCLE
5
125
100
AcDbEntity
8
0
100
AcDbCircle
10
8.749999705120004
20
-15.249999818799953
30
0
40
1.25
210
0
220
0
230
1
0
CIRCLE
5
126
100
AcDbEntity
8
0
100
AcDbCircle
10
8.749999705120004
20
-15.249999818799953
30
0
40
2.4500000000000002
210
0
220
0
230
1
0
CIRCLE
5
127
100
AcDbEntity
8
0
100
AcDbCircle
10
15.483273705120109
20
-43.666725818799947
30
0
40
2.4500000000000002
210
0
220
0
230
1
0
LWPOLYLINE
5
128
100
AcDbEntity
8
0
100
AcDbPolyline
90
11
70
1
43
0.0
10
-3.5283945333776812
20
-29.461664345337162
42
0.99146563791130926
10
3.6660605559701267
20
-13.399999999999398
10
16.341796103966189
20
-13.399999999999398
42
0.76225989402807004
10
20.75113822770718
20
-19.611705886136694
10
31.199999999999992
20
-30.060567658433467
10
31.199999999999992
20
-40.560014803852127
10
28.311999832347993
20
-45.562177826492928
10
13.546101922726431
20
-45.562177826492913
42
0.7676679892294116
10
6.8168593513322717
20
-41.962177826492926
10
-6.7800000000000038
20
-41.962177826492926
10
-6.7800000000000029
20
-39.781998963978062
42
0.21434856122654822
0
ENDSEC
0
SECTION
2
OBJECTS
0
DICTIONARY
5
C
100
AcDbDictionary
3
ACAD_GROUP
350
D
3
ACAD_MLINESTYLE
350
17
0
DICTIONARY
5
D
100
AcDbDictionary
0
DICTIONARY
5
1A
330
C
100
AcDbDictionary
0
DICTIONARY
5
17
100
AcDbDictionary
0
ENDSEC
0
EOF
