0
SECTION
2
HEADER
9
$INSUNITS
70
4
9
$ACADVER
1
AC1014
9
$HANDSEED
5
FFFF
0
ENDSEC
0
SECTION
2
TABLES
0
TABLE
2
VPORT
5
8
100
AcDbSymbolTable
0
ENDTAB
0
TABLE
2
LTYPE
5
5
100
AcDbSymbolTable
0
LTYPE
5
14
100
AcDbSymbolTableRecord
100
AcDbLinetypeTableRecord
2
BYBLOCK
70
0
0
LTYPE
5
15
100
AcDbSymbolTableRecord
100
AcDbLinetypeTableRecord
2
BYLAYER
70
0
0
LTYPE
5
16
100
AcDbSymbolTableRecord
100
AcDbLinetypeTableRecord
2
DASHED
70
0
3
Dashed __ __ __ __ __ __ __ __ __ __ __ __ __ _
72
65
73
2
40
0.75
49
0.5
74
0
49
-0.25
74
0
0
ENDTAB
0
TABLE
2
LAYER
5
2
100
AcDbSymbolTable
70
2
0
LAYER
5
50
100
AcDbSymbolTableRecord
100
AcDbLayerTableRecord
2
0
70
0
62
7
6
CONTINUOUS
0
ENDTAB
0
TABLE
2
STYLE
5
3
100
AcDbSymbolTable
70
1
0
STYLE
5
11
100
AcDbSymbolTableRecord
100
AcDbTextStyleTableRecord
2
STANDARD
70
0
0
ENDTAB
0
TABLE
2
VIEW
5
6
100
AcDbSymbolTable
70
0
0
ENDTAB
0
TABLE
2
UCS
5
7
100
AcDbSymbolTable
70
0
0
ENDTAB
0
TABLE
2
APPID
5
9
100
AcDbSymbolTable
70
2
0
APPID
5
12
100
AcDbSymbolTableRecord
100
AcDbRegAppTableRecord
2
ACAD
70
0
0
ENDTAB
0
TABLE
2
DIMSTYLE
5
A
100
AcDbSymbolTable
70
1
0
ENDTAB
0
TABLE
2
BLOCK_RECORD
5
1
100
AcDbSymbolTable
70
1
0
BLOCK_RECORD
5
1F
100
AcDbSymbolTableRecord
100
AcDbBlockTableRecord
2
*MODEL_SPACE
0
BLOCK_RECORD
5
1B
100
AcDbSymbolTableRecord
100
AcDbBlockTableRecord
2
*PAPER_SPACE
0
ENDTAB
0
ENDSEC
0
SECTION
2
BLOCKS
0
BLOCK
5
20
100
AcDbEntity
100
AcDbBlockBegin
2
*MODEL_SPACE
0
ENDBLK
5
21
100
AcDbEntity
100
AcDbBlockEnd
0
BLOCK
5
1C
100
AcDbEntity
100
AcDbBlockBegin
2
*PAPER_SPACE
0
ENDBLK
5
1D
100
AcDbEntity
100
AcDbBlockEnd
0
ENDSEC
0
SECTION
2
ENTITIES
0
POINT
5
100
100
AcDbEntity
8
0
100
AcDbPoint
10
-2.6273059957638224e-18
20
-21.400000000000002
30
0
0
POINT
5
101
100
AcDbEntity
8
0
100
AcDbPoint
10
-2.6273059957638224e-18
20
-21.400000000000002
30
0
0
POINT
5
102
100
AcDbEntity
8
0
100
AcDbPoint
10
0
20
-21.400000000000002
30
0
0
LWPOLYLINE
5
103
100
AcDbEntity
8
0
100
AcDbPolyline
90
10
70
1
43
0.0
10
16.000000000000444
20
-21.400000000000841
10
8.0000000000012506
20
-7.5435935394491827
10
8.0000000000012825
20
15.600000000000232
42
0.4142135623730947
10
7.0000000000015206
20
16.599999999999994
10
-6.9999999999987423
20
16.599999999999994
42
0.41421356237309537
10
-7.9999999999987379
20
15.600000000000001
10
-7.9999999999987503
20
-7.5435935394491782
10
-15.999999999999252
20
-21.399999999999316
10
-8.0000000000000995
20
-35.256406460550863
10
7.999999999999746
20
-35.256406460551361
0
LINE
5
104
100
AcDbEntity
8
0
100
AcDbLine
10
8.0000000000012506
20
-7.5435935394491853
30
0
11
-7.9999999999987503
21
-7.5435935394491782
31
0
0
LINE
5
105
100
AcDbEntity
8
0
100
AcDbLine
10
-7.9999999999987708
20
-35.256406460550629
30
0
11
-28.042939940024169
21
-46.828203230275633
31
0
0
ARC
5
106
100
AcDbEntity
8
0
100
AcDbCircle
10
-28.542939940035772
20
-45.962177826470132
30
0
40
1.0000000000004698
210
0
220
0
230
1
100
AcDbArc
50
210.00000000134582
51
299.99999999997237
0
LINE
5
107
100
AcDbEntity
8
0
100
AcDbLine
10
-29.408965343808873
20
-46.462177826490709
30
0
11
-36.408965343808802
21
-34.337822173508677
31
0
0
ARC
5
108
100
AcDbEntity
8
0
100
AcDbCircle
10
-35.542939940028035
20
-33.837822173507696
30
0
40
0.99999999999706868
210
0
220
0
230
1
100
AcDbArc
50
119.9999999998599
51
210.00000000015385
0
LINE
5
109
100
AcDbEntity
8
0
100
AcDbLine
10
-36.042939940024453
20
-32.97179676972457
30
0
11
-15.999999999999579
21
-21.400000000000038
31
0
0
LINE
5
110
100
AcDbEntity
8
0
100
AcDbLine
10
15.999999999999265
20
-21.40000000000034
30
0
11
36.042939940024311
21
-32.971796769724378
31
0
0
ARC
5
111
100
AcDbEntity
8
0
100
AcDbCircle
10
35.542939940011863
20
-33.837822173529403
30
0
40
1.0000000000004765
210
-0
220
0
230
1
100
AcDbArc
50
-29.999999998653649
51
59.999999999972069
0
LINE
5
112
100
AcDbEntity
8
0
100
AcDbLine
10
36.408965343808468
20
-34.337822173509295
30
0
11
29.408965343808511
21
-46.462177826491313
31
0
0
ARC
5
113
100
AcDbEntity
8
0
100
AcDbCircle
10
28.542939940025054
20
-45.96217782649498
30
0
40
0.99999999999706002
210
0
220
0
230
1
100
AcDbArc
50
239.99999999985971
51
330.00000000015382
0
LINE
5
114
100
AcDbEntity
8
0
100
AcDbLine
10
28.042939940024404
20
-46.828203230275648
30
0
11
8.0000000000001528
21
-35.256406460551403
31
0
0
LWPOLYLINE
5
115
100
AcDbEntity
8
0
100
AcDbPolyline
90
4
70
1
43
0.0
10
3.6791651245995647
20
-11.649999999999999
10
-7.5791651245995588
20
-31.149999999999999
10
-3.6791651245995594
20
-31.149999999999999
10
7.579165124599565
20
-11.649999999999999
0
LWPOLYLINE
5
116
100
AcDbEntity
8
0
100
AcDbPolyline
90
4
70
1
43
0.0
10
0.22083487540043245
20
-31.149999999999999
10
5.8500000000000094
20
-21.400000000000002
10
9.7500000000000053
20
-21.400000000000002
10
4.1208348754004467
20
-31.149999999999999
0
LWPOLYLINE
5
117
100
AcDbEntity
8
0
100
AcDbPolyline
90
4
70
1
43
0.0
10
-0.22083487540043603
20
-11.649999999999995
10
-5.8500000000000014
20
-21.400000000000002
10
-9.7499999999999947
20
-21.400000000000002
10
-4.1208348754004263
20
-11.649999999999999
0
LINE
5
118
100
AcDbEntity
8
0
100
AcDbLine
10
-0.22083487540043603
20
-11.649999999999995
30
0
11
-0.34407286959740269
21
-11.649999999999995
31
0
0
ENDSEC
0
SECTION
2
OBJECTS
0
DICTIONARY
5
C
100
AcDbDictionary
3
ACAD_GROUP
350
D
3
ACAD_MLINESTYLE
350
17
0
DICTIONARY
5
D
100
AcDbDictionary
0
DICTIONARY
5
1A
330
C
100
AcDbDictionary
0
DICTIONARY
5
17
100
AcDbDictionary
0
ENDSEC
0
EOF
