0
SECTION
2
HEADER
9
$INSUNITS
70
4
9
$ACADVER
1
AC1014
9
$HANDSEED
5
FFFF
0
ENDSEC
0
SECTION
2
TABLES
0
TABLE
2
VPORT
5
8
100
AcDbSymbolTable
0
ENDTAB
0
TABLE
2
LTYPE
5
5
100
AcDbSymbolTable
0
LTYPE
5
14
100
AcDbSymbolTableRecord
100
AcDbLinetypeTableRecord
2
BYBLOCK
70
0
0
LTYPE
5
15
100
AcDbSymbolTableRecord
100
AcDbLinetypeTableRecord
2
BYLAYER
70
0
0
LTYPE
5
16
100
AcDbSymbolTableRecord
100
AcDbLinetypeTableRecord
2
DASHED
70
0
3
Dashed __ __ __ __ __ __ __ __ __ __ __ __ __ _
72
65
73
2
40
0.75
49
0.5
74
0
49
-0.25
74
0
0
ENDTAB
0
TABLE
2
LAYER
5
2
100
AcDbSymbolTable
70
2
0
LAYER
5
50
100
AcDbSymbolTableRecord
100
AcDbLayerTableRecord
2
0
70
0
62
7
6
CONTINUOUS
0
ENDTAB
0
TABLE
2
STYLE
5
3
100
AcDbSymbolTable
70
1
0
STYLE
5
11
100
AcDbSymbolTableRecord
100
AcDbTextStyleTableRecord
2
STANDARD
70
0
0
ENDTAB
0
TABLE
2
VIEW
5
6
100
AcDbSymbolTable
70
0
0
ENDTAB
0
TABLE
2
UCS
5
7
100
AcDbSymbolTable
70
0
0
ENDTAB
0
TABLE
2
APPID
5
9
100
AcDbSymbolTable
70
2
0
APPID
5
12
100
AcDbSymbolTableRecord
100
AcDbRegAppTableRecord
2
ACAD
70
0
0
ENDTAB
0
TABLE
2
DIMSTYLE
5
A
100
AcDbSymbolTable
70
1
0
ENDTAB
0
TABLE
2
BLOCK_RECORD
5
1
100
AcDbSymbolTable
70
1
0
BLOCK_RECORD
5
1F
100
AcDbSymbolTableRecord
100
AcDbBlockTableRecord
2
*MODEL_SPACE
0
BLOCK_RECORD
5
1B
100
AcDbSymbolTableRecord
100
AcDbBlockTableRecord
2
*PAPER_SPACE
0
ENDTAB
0
ENDSEC
0
SECTION
2
BLOCKS
0
BLOCK
5
20
100
AcDbEntity
100
AcDbBlockBegin
2
*MODEL_SPACE
0
ENDBLK
5
21
100
AcDbEntity
100
AcDbBlockEnd
0
BLOCK
5
1C
100
AcDbEntity
100
AcDbBlockBegin
2
*PAPER_SPACE
0
ENDBLK
5
1D
100
AcDbEntity
100
AcDbBlockEnd
0
ENDSEC
0
SECTION
2
ENTITIES
0
LINE
5
100
100
AcDbEntity
8
0
100
AcDbLine
10
158.88847364307273
20
-46.999999999986429
30
0
11
158.88847364306417
21
-42.999999999990777
31
0
0
LINE
5
101
100
AcDbEntity
8
0
100
AcDbLine
10
157.88847364306415
20
-41.999999999992887
30
0
11
79.888473643082534
21
-41.999999999992887
31
0
0
LINE
5
102
100
AcDbEntity
8
0
100
AcDbLine
10
78.88847364307334
20
-42.999999999999623
30
0
11
78.888473643063548
21
-47.000000000041851
31
0
0
ARC
5
103
100
AcDbEntity
8
0
100
AcDbCircle
10
79.888473643012148
20
-47.000000000044295
30
0
40
0.99999999994859756
210
0
220
0
230
1
100
AcDbArc
50
180
51
270
0
ARC
5
104
100
AcDbEntity
8
0
100
AcDbCircle
10
79.888473643082534
20
-43.000000000002075
30
0
40
1.0000000000091891
210
0
220
-0
230
1
100
AcDbArc
50
90
51
180
0
ARC
5
105
100
AcDbEntity
8
0
100
AcDbCircle
10
157.88847364306415
20
-42.999999999992923
30
0
40
1.000000000000032
210
-0
220
0
230
1
100
AcDbArc
50
0
51
90
0
ARC
5
106
100
AcDbEntity
8
0
100
AcDbCircle
10
157.88847364306841
20
-46.999999999988574
30
0
40
1.0000000000043219
210
0
220
0
230
1
100
AcDbArc
50
-90
51
0
0
ARC
5
107
100
AcDbEntity
8
0
100
AcDbCircle
10
104.76048950272003
20
-50.500015478710012
30
0
40
0.50001547882299502
210
-0
220
0
230
1
100
AcDbArc
50
-42.474820752894118
51
89.998797137560032
0
ARC
5
108
100
AcDbEntity
8
0
100
AcDbCircle
10
91.374900548574004
20
-50.499999683470008
30
0
40
0.49999968347030582
210
0
220
0
230
1
100
AcDbArc
50
90.000062861990557
51
248.59676649578142
0
ARC
5
109
100
AcDbEntity
8
0
100
AcDbCircle
10
88.199999880048011
20
-58.599999813470006
30
0
40
8.200000107390002
210
0
220
0
230
1
100
AcDbArc
50
-114.80266908076847
51
68.596649496446204
0
ARC
5
110
100
AcDbEntity
8
0
100
AcDbCircle
10
84.550404967486003
20
-66.497502047249981
30
0
40
0.50000475236030906
210
0
220
-0
230
1
100
AcDbArc
50
65.198359239096561
51
187.4825751943826
0
ARC
5
111
100
AcDbEntity
8
0
100
AcDbCircle
10
71.562219851129996
20
-68.203722226579998
30
0
40
12.599771578584004
210
-0
220
0
230
1
100
AcDbArc
50
-41.851082431754953
51
7.4839793712286182
0
ARC
5
112
100
AcDbEntity
8
0
100
AcDbCircle
10
81.319959839699038
20
-76.943829409360035
30
0
40
0.4999598405617619
210
0
220
0
230
1
100
AcDbArc
50
138.14771998831529
51
179.99662966486349
0
LINE
5
113
100
AcDbEntity
8
0
100
AcDbLine
10
80.819999999999965
20
-76.943799999999996
30
0
11
80.819999999999993
21
-79.262178000000006
31
0
0
ARC
5
114
100
AcDbEntity
8
0
100
AcDbCircle
10
81.320014990922033
20
-79.26216300906998
30
0
40
0.50001499114676096
210
0
220
0
230
1
100
AcDbArc
50
180.00171778239209
51
269.99828221837504
0
LINE
5
115
100
AcDbEntity
8
0
100
AcDbLine
10
81.319999999999993
20
-79.762177999992275
30
0
11
95.055124000000006
21
-79.762178000000006
31
0
0
ARC
5
116
100
AcDbEntity
8
0
100
AcDbCircle
10
95.060649658176004
20
-79.262508816829978
30
0
40
0.49969973534921641
210
0
220
0
230
1
100
AcDbArc
50
269.36641282226947
51
317.54058728658936
0
ARC
5
117
100
AcDbEntity
8
0
100
AcDbCircle
10
97.899997259815009
20
-81.86218266548002
30
0
40
3.3500014384200076
210
-0
220
0
230
1
100
AcDbArc
50
-15.054563692298444
51
137.52053831910757
0
ARC
5
118
100
AcDbEntity
8
0
100
AcDbCircle
10
101.61786038405003
20
-82.86217946475999
30
0
40
0.49999853679555517
210
0
220
0
230
1
100
AcDbArc
50
164.94514585675256
51
270.00453966676088
0
LINE
5
119
100
AcDbEntity
8
0
100
AcDbLine
10
101.61790000000002
20
-83.362177999994586
30
0
11
116.56980000000001
21
-83.362178
31
0
0
ARC
5
120
100
AcDbEntity
8
0
100
AcDbCircle
10
116.56981208509002
20
-82.862312085089968
30
0
40
0.49986591505611344
210
0
220
0
230
1
100
AcDbArc
50
269.99861477922059
51
330.00053505718614
0
LINE
5
121
100
AcDbEntity
8
0
100
AcDbLine
10
117.00271099998915
20
-83.112240999993716
30
0
11
119.931669
21
-78.039138000000008
31
0
0
ARC
5
122
100
AcDbEntity
8
0
100
AcDbCircle
10
119.50000062167999
20
-77.786825118620001
30
0
40
0.49999937895133212
210
0
220
0
230
1
100
AcDbArc
50
-30.306554410922637
51
0.0028783853795227693
0
LINE
5
123
100
AcDbEntity
8
0
100
AcDbLine
10
120
20
-67.219200000000001
30
0
11
119.999979
21
-67.219200000000001
31
0
0
ARC
5
124
100
AcDbEntity
8
0
100
AcDbCircle
10
119.49967369220998
20
-67.21925224379001
30
0
40
0.50030531051777349
210
0
220
-0
230
1
100
AcDbArc
50
0.0059830439643659243
51
44.994002369778023
0
LINE
5
125
100
AcDbEntity
8
0
100
AcDbLine
10
119.85348000000059
20
-66.865519999999435
30
0
11
109.32993000000002
21
-56.341970000000003
31
0
0
ARC
5
126
100
AcDbEntity
8
0
100
AcDbCircle
10
108.97639895304003
20
-56.69549642242
30
0
40
0.4999651312978769
210
0
220
-0
230
1
100
AcDbArc
50
44.999625254473521
51
110.94949260856446
0
ARC
5
127
100
AcDbEntity
8
0
100
AcDbCircle
10
107.60000859217001
20
-53.099971305690005
30
0
40
3.3500025691133315
210
0
220
0
230
1
100
AcDbArc
50
137.52126007151185
51
290.94682383472752
0
ARC
5
128
100
AcDbEntity
8
0
100
AcDbCircle
10
122.79998647563998
20
-83.928304874960006
30
0
40
0.79999744896762592
210
0
220
0
230
1
100
AcDbArc
50
180.30009792959558
51
236.85285449309947
0
LINE
5
129
100
AcDbEntity
8
0
100
AcDbLine
10
122.36255499999929
20
-84.598118000001094
30
0
11
137.215576
21
-94.298186999999999
31
0
0
ARC
5
130
100
AcDbEntity
8
0
100
AcDbCircle
10
135.38423099885
20
-97.102295579209994
30
0
40
3.3491565262350083
210
0
220
-0
230
1
100
AcDbArc
50
44.998531177363674
51
56.851709042524021
0
LINE
5
131
100
AcDbEntity
8
0
100
AcDbLine
10
137.75250299999777
20
-94.734145000002229
30
0
11
143.54531500000002
21
-100.52695700000001
31
0
0
ARC
5
132
100
AcDbEntity
8
0
100
AcDbCircle
10
145.52521599999002
20
-98.547059999989997
30
0
40
2.800000017930377
210
0
220
0
230
1
100
AcDbArc
50
-135.00005787718766
51
45.000057871345909
0
LINE
5
133
100
AcDbEntity
8
0
100
AcDbLine
10
147.50511300020165
20
-96.567159000202111
30
0
11
142.417269
21
-91.479315999999997
31
0
0
ARC
5
134
100
AcDbEntity
8
0
100
AcDbCircle
10
141.84828905849002
20
-92.041613771179954
30
0
40
0.79994809663793243
210
0
220
-0
230
1
100
AcDbArc
50
44.661572307951083
51
108.23357983898603
0
ARC
5
135
100
AcDbEntity
8
0
100
AcDbCircle
10
140.54999137853
20
-88.099984978630005
30
0
40
3.3499933984950032
210
0
220
0
230
1
100
AcDbArc
50
236.85279642063284
51
288.23026198554572
0
LINE
5
136
100
AcDbEntity
8
0
100
AcDbLine
10
138.718242
20
-90.904829000000007
30
0
11
129.42759599999999
21
-84.837383000000003
31
0
0
ARC
5
137
100
AcDbEntity
8
0
100
AcDbCircle
10
131.14999195447001
20
-82.200000044180001
30
0
40
3.1499899491320003
210
0
220
-0
230
1
100
AcDbArc
50
61.412522606229167
51
236.85264762155415
0
LINE
5
138
100
AcDbEntity
8
0
100
AcDbLine
10
132.65726199999929
20
-79.434033000001293
30
0
11
132.65727200000001
21
-79.434015000000002
31
0
0
LINE
5
139
100
AcDbEntity
8
0
100
AcDbLine
10
132.65727200000001
20
-79.434015000000002
30
0
11
133.207696
21
-79.733959999999996
31
0
0
ARC
5
140
100
AcDbEntity
8
0
100
AcDbCircle
10
134.04999339303001
20
-78.199999855119998
30
0
40
1.7499996069672299
210
0
220
0
230
1
100
AcDbArc
50
241.22881499242513
51
359.99999524638952
0
ARC
5
141
100
AcDbEntity
8
0
100
AcDbCircle
10
134.04999301827999
20
-66.200000393029995
30
0
40
1.7500099800932223
210
0
220
0
230
1
100
AcDbArc
50
-0.1936788715419826
51
118.58745216751552
0
LINE
5
142
100
AcDbEntity
8
0
100
AcDbLine
10
133.2126139999977
20
-64.663337999995775
30
0
11
132.65726100000001
21
-64.965968000000004
31
0
0
ARC
5
143
100
AcDbEntity
8
0
100
AcDbCircle
10
131.14999288349
20
-62.200000460779997
30
0
40
3.1499894607830048
210
0
220
-0
230
1
100
AcDbArc
50
89.999997880776732
51
298.58744227543116
0
LINE
5
144
100
AcDbEntity
8
0
100
AcDbLine
10
131.14999299999999
20
-59.050010999996999
30
0
11
131.14999299999999
21
-59.049988999999997
31
0
0
LINE
5
145
100
AcDbEntity
8
0
100
AcDbLine
10
131.14999299999999
20
-59.049988999999997
30
0
11
135.00399200000001
21
-59.049988999999997
31
0
0
ARC
5
146
100
AcDbEntity
8
0
100
AcDbCircle
10
134.99999498871998
20
-58.250000973870002
30
0
40
0.79999801127911807
210
0
220
0
230
1
100
AcDbArc
50
-89.71373325109623
51
6.9743430849598728e-05
0
ARC
5
147
100
AcDbEntity
8
0
100
AcDbCircle
10
134.99999154912001
20
-50.800001450870013
30
0
40
0.80000145088131913
210
0
220
-0
230
1
100
AcDbArc
50
0.00010390814622045157
51
89.999896088564313
0
ARC
5
148
100
AcDbEntity
8
0
100
AcDbCircle
10
122.79999445086999
20
-50.800001450869985
30
0
40
0.80000145087130048
210
0
220
0
230
1
100
AcDbArc
50
90.000103910720213
51
179.9998960918538
0
LINE
5
149
100
AcDbEntity
8
0
100
AcDbLine
10
121.99999299999932
20
-50.799999999999997
30
0
11
121.99999300000002
21
-52.200000000000003
31
0
0
ARC
5
150
100
AcDbEntity
8
0
100
AcDbCircle
10
121.19999154912001
20
-52.199998549120004
30
0
40
0.80000145087200214
210
-0
220
0
230
1
100
AcDbArc
50
270.00010391143775
51
359.9998960883463
0
LINE
5
151
100
AcDbEntity
8
0
100
AcDbLine
10
121.19999300000002
20
-52.999999999990692
30
0
11
119.39999299999999
21
-53.000000000000007
31
0
0
ARC
5
152
100
AcDbEntity
8
0
100
AcDbCircle
10
119.39999299999999
20
-55.799999999999997
30
0
40
2.7999999999999936
210
0
220
-0
230
1
100
AcDbArc
50
90
51
270
0
LINE
5
153
100
AcDbEntity
8
0
100
AcDbLine
10
119.39999299999999
20
-58.600000000000001
30
0
11
121.19999300000002
21
-58.600000000000001
31
0
0
ARC
5
154
100
AcDbEntity
8
0
100
AcDbCircle
10
121.19999325624001
20
-59.399999743760006
30
0
40
0.80000074376001096
210
-0
220
0
230
1
100
AcDbArc
50
-1.8351168930218065e-05
51
90.000018351843025
0
LWPOLYLINE
5
155
100
AcDbEntity
8
0
100
AcDbPolyline
90
8
70
1
43
0.0
10
158.88847364289381
20
-120.99999999999112
10
158.88847364288637
20
-117.00000000000438
42
0.41421356237254875
10
157.88847364287304
20
-115.99999999999289
10
79.888473642906902
20
-115.99999999999289
42
0.41421356237198165
10
78.888473642897708
20
-116.99999999999829
10
78.888473642882474
20
-121.00000000000344
42
0.41421356237420842
10
79.888473642868135
20
-121.99999999999289
10
157.88847364289393
20
-121.99999999999289
42
0.41421356237364132
0
ARC
5
156
100
AcDbEntity
8
0
100
AcDbCircle
10
96.881001028977295
20
-48.999999999995609
30
0
40
0.99999999999711831
210
0
220
0
230
1
100
AcDbArc
50
-90.199092703187674
51
89.99999992718169
0
ARC
5
157
100
AcDbEntity
8
0
100
AcDbCircle
10
100.88100102897728
20
-48.999999999992085
30
0
40
0.99999999999934941
210
0
220
0
230
1
100
AcDbArc
50
93.395365499561393
51
270.00000000001222
0
LINE
5
158
100
AcDbEntity
8
0
100
AcDbLine
10
96.877526212782712
20
-49.999993962800708
30
0
11
91.374899999999997
21
-50
31
0
0
LINE
5
159
100
AcDbEntity
8
0
100
AcDbLine
10
100.88100102897749
20
-49.999999999992724
30
0
11
104.76050000000001
21
-49.999999999997215
31
0
0
LINE
5
160
100
AcDbEntity
8
0
100
AcDbLine
10
96.881001030248214
20
-47.999999999995609
30
0
11
79.888473643012148
21
-47.999999999992895
31
0
0
ARC
5
161
100
AcDbEntity
8
0
100
AcDbCircle
10
126.27064400225292
20
-48.999999999992731
30
0
40
0.99999999999999645
210
0
220
0
230
1
100
AcDbArc
50
-89.999999999997556
51
90
0
ARC
5
162
100
AcDbEntity
8
0
100
AcDbCircle
10
130.27064400225294
20
-48.999999999999424
30
0
40
1.0000000000066933
210
0
220
-0
230
1
100
AcDbArc
50
90
51
270.00000000000159
0
LINE
5
163
100
AcDbEntity
8
0
100
AcDbLine
10
100.82177540051157
20
-48.001755378202645
30
0
11
126.27064400225292
21
-47.999999999992731
31
0
0
LINE
5
164
100
AcDbEntity
8
0
100
AcDbLine
10
126.27064400225296
20
-49.999999999992724
30
0
11
122.799993
21
-50
31
0
0
LINE
5
165
100
AcDbEntity
8
0
100
AcDbLine
10
130.27064400225296
20
-49.999999999992724
30
0
11
134.99999299999999
21
-49.999999999999318
31
0
0
ARC
5
166
100
AcDbEntity
8
0
100
AcDbCircle
10
120.99999841252873
20
-70.950954377996652
30
0
40
0.99999841252941479
210
0
220
0
230
1
100
AcDbArc
50
-180
51
1.4002928947190925e-05
0
ARC
5
167
100
AcDbEntity
8
0
100
AcDbCircle
10
120.99999890167547
20
-74.950954377996609
30
0
40
0.99999890167697614
210
0
220
-0
230
1
100
AcDbArc
50
1.4002928947190925e-05
51
180
0
LINE
5
168
100
AcDbEntity
8
0
100
AcDbLine
10
119.9999999999993
20
-70.950954377996453
30
0
11
119.999979
21
-67.219200000000001
31
0
0
LINE
5
169
100
AcDbEntity
8
0
100
AcDbLine
10
119.99999999999858
20
-74.950954377996425
30
0
11
119.99999999999807
21
-77.786799999999999
31
0
0
LINE
5
170
100
AcDbEntity
8
0
100
AcDbLine
10
121.99999780335241
20
-74.950954133423309
30
0
11
122.00000000000001
21
-83.932495000000017
31
0
0
LINE
5
171
100
AcDbEntity
8
0
100
AcDbLine
10
121.99999682505818
20
-70.950954133423465
30
0
11
121.99999399999997
21
-59.399999999999451
31
0
0
ARC
5
172
100
AcDbEntity
8
0
100
AcDbCircle
10
138.59999299998972
20
-65.649708757147323
30
0
40
0.80000000000000071
210
0
220
0
230
1
100
AcDbArc
50
180
51
270
0
LINE
5
173
100
AcDbEntity
8
0
100
AcDbLine
10
138.59999299998972
20
-66.44970875714732
30
0
11
144.63661773577019
21
-66.449708757147349
31
0
0
LINE
5
174
100
AcDbEntity
8
0
100
AcDbLine
10
146.23661773577072
20
-78.776708757147318
30
0
11
150.38661773577073
21
-78.776708757147304
31
0
0
ARC
5
175
100
AcDbEntity
8
0
100
AcDbCircle
10
150.38661773577073
20
-77.976708757147307
30
0
40
0.80000000000000959
210
-0
220
0
230
1
100
AcDbArc
50
-90
51
0
0
LINE
5
176
100
AcDbEntity
8
0
100
AcDbLine
10
151.18661773577074
20
-77.976708757147307
30
0
11
151.18661773577048
21
-50.799999999985133
31
0
0
ARC
5
177
100
AcDbEntity
8
0
100
AcDbCircle
10
138.59999300000001
20
-50.800000000000026
30
0
40
0.80000000000000959
210
0
220
-0
230
1
100
AcDbArc
50
89.999999999997954
51
180
0
LWPOLYLINE
5
178
100
AcDbEntity
8
0
100
AcDbPolyline
90
4
70
1
43
0.0
10
139.34999300000263
20
-55.312427189286026
42
0.99999999999999989
10
142.5499929999938
20
-55.312427189277216
10
142.5499929999938
20
-52.912427189281843
42
1.0000015246419256
10
139.34999299999669
20
-52.912432068162332
0
LWPOLYLINE
5
179
100
AcDbEntity
8
0
100
AcDbPolyline
90
4
70
1
43
0.0
10
139.34999299999669
20
-63.537276688978338
42
1.0000015246419256
10
142.5499929999938
20
-63.537281567888812
10
142.5499929999938
20
-61.137281567858786
42
0.99999999999999989
10
139.34999300000263
20
-61.137281567858786
0
LINE
5
180
100
AcDbEntity
8
0
100
AcDbLine
10
135.79999299999679
20
-55.996497313267199
30
0
11
135.7999929999954
21
-58.25
31
0
0
LINE
5
181
100
AcDbEntity
8
0
100
AcDbLine
10
130.27064400225294
20
-47.999999999992731
30
0
11
138.67499300000085
21
-47.9999999999918
31
0
0
LINE
5
182
100
AcDbEntity
8
0
100
AcDbLine
10
137.79999299999602
20
-68.449708757147349
30
0
11
143.43661773577048
21
-68.449708757147349
31
0
0
LINE
5
183
100
AcDbEntity
8
0
100
AcDbLine
10
143.43661773577054
20
-78.776708757147333
30
0
11
137.79999299999648
21
-78.776708757147333
31
0
0
ARC
5
184
100
AcDbEntity
8
0
100
AcDbCircle
10
136.79999299999787
20
-71.349009461165366
30
0
40
0.99999999999999645
210
0
220
0
230
1
100
AcDbArc
50
-180
51
0
0
ARC
5
185
100
AcDbEntity
8
0
100
AcDbCircle
10
136.79999299999622
20
-75.349009461165366
30
0
40
0.99999999999999645
210
0
220
-0
230
1
100
AcDbArc
50
0
51
180
0
LINE
5
186
100
AcDbEntity
8
0
100
AcDbLine
10
137.79999299999784
20
-71.349009461165366
30
0
11
137.79999299999602
21
-68.449708757147349
31
0
0
LINE
5
187
100
AcDbEntity
8
0
100
AcDbLine
10
143.43661773577048
20
-68.449708757147349
30
0
11
143.44336839527909
21
-71.46500837328729
31
0
0
LINE
5
188
100
AcDbEntity
8
0
100
AcDbLine
10
143.43661773577045
20
-75.349009461165366
30
0
11
143.43661773577054
21
-78.776708757147333
31
0
0
LINE
5
189
100
AcDbEntity
8
0
100
AcDbLine
10
137.79999299999648
20
-78.776708757147333
30
0
11
137.79999299999622
21
-75.349009461165366
31
0
0
LINE
5
190
100
AcDbEntity
8
0
100
AcDbLine
10
135.79999299999787
20
-71.34900946116494
30
0
11
135.799993
21
-66.205916000000002
31
0
0
LINE
5
191
100
AcDbEntity
8
0
100
AcDbLine
10
135.79999299999622
20
-75.349009461164954
30
0
11
135.79999299999503
21
-78.200000000000017
31
0
0
ARC
5
192
100
AcDbEntity
8
0
100
AcDbCircle
10
144.43661773577051
20
-75.349009461165366
30
0
40
1.0000000000000853
210
-0
220
0
230
1
100
AcDbArc
50
0
51
180
0
ARC
5
193
100
AcDbEntity
8
0
100
AcDbCircle
10
144.43661773577043
20
-71.349009461165366
30
0
40
0.99999999999994293
210
0
220
0
230
1
100
AcDbArc
50
-173.33875588697495
51
0
0
LINE
5
194
100
AcDbEntity
8
0
100
AcDbLine
10
145.43661773577074
20
-77.97670875714735
30
0
11
145.4366177357706
21
-75.349009461165323
31
0
0
LINE
5
195
100
AcDbEntity
8
0
100
AcDbLine
10
145.43661773577037
20
-71.349009461165323
30
0
11
145.43661773577017
21
-67.249708757147303
31
0
0
ARC
5
196
100
AcDbEntity
8
0
100
AcDbCircle
10
142.49330536788474
20
-48.999999999986173
30
0
40
0.99999999999841549
210
0
220
0
230
1
100
AcDbArc
50
-90.000000000006523
51
90
0
ARC
5
197
100
AcDbEntity
8
0
100
AcDbCircle
10
146.49330536788472
20
-48.999999999979138
30
0
40
0.99999999998624745
210
0
220
-0
230
1
100
AcDbArc
50
90
51
269.99999999999676
0
LINE
5
198
100
AcDbEntity
8
0
100
AcDbLine
10
146.49330536788466
20
-49.999999999979138
30
0
11
150.38661773576942
21
-49.999999999985143
31
0
0
LINE
5
199
100
AcDbEntity
8
0
100
AcDbLine
10
142.49330536788463
20
-49.999999999984588
30
0
11
138.59999300000004
21
-50.000000000000014
31
0
0
ARC
5
200
100
AcDbEntity
8
0
100
AcDbCircle
10
136.79999299999852
20
-55.649830254207622
30
0
40
1.0000000000014175
210
-0
220
0
230
1
100
AcDbArc
50
0
51
180
0
ARC
5
201
100
AcDbEntity
8
0
100
AcDbCircle
10
136.79999299999997
20
-51.649830254207615
30
0
40
1.0000000000002629
210
0
220
0
230
1
100
AcDbArc
50
180
51
360
0
LINE
5
202
100
AcDbEntity
8
0
100
AcDbLine
10
135.79999299999704
20
-55.649830254207004
30
0
11
135.79999299999679
21
-55.996497313267199
31
0
0
LINE
5
203
100
AcDbEntity
8
0
100
AcDbLine
10
135.799993
20
-50.799999999999997
30
0
11
135.79999299999972
21
-51.649830254206996
31
0
0
ARC
5
204
100
AcDbEntity
8
0
100
AcDbCircle
10
146.23661773577075
20
-77.976708757147307
30
0
40
0.80000000000001847
210
0
220
0
230
1
100
AcDbArc
50
180
51
269.99999999999795
0
ARC
5
205
100
AcDbEntity
8
0
100
AcDbCircle
10
150.38661773577047
20
-50.799999999985133
30
0
40
0.80000000000000071
210
0
220
0
230
1
100
AcDbArc
50
0
51
90.000000000075303
0
ARC
5
206
100
AcDbEntity
8
0
100
AcDbCircle
10
144.63661773577016
20
-67.249708757147346
30
0
40
0.80000000000000071
210
0
220
-0
230
1
100
AcDbArc
50
0
51
89.999999999997954
0
LINE
5
207
100
AcDbEntity
8
0
100
AcDbLine
10
137.79999299999997
20
-51.649830254207636
30
0
11
137.799993
21
-50.800000000000018
31
0
0
LINE
5
208
100
AcDbEntity
8
0
100
AcDbLine
10
137.79999299999992
20
-55.649830254207643
30
0
11
137.79999299998971
21
-65.649708757146755
31
0
0
LINE
5
209
100
AcDbEntity
8
0
100
AcDbLine
10
142.49330536788474
20
-47.99999999999288
30
0
11
138.67499300000085
21
-47.9999999999918
31
0
0
LINE
5
210
100
AcDbEntity
8
0
100
AcDbLine
10
146.49330536788472
20
-47.999999999992895
30
0
11
157.88847364306841
21
-47.999999999992895
31
0
0
ENDSEC
0
SECTION
2
OBJECTS
0
DICTIONARY
5
C
100
AcDbDictionary
3
ACAD_GROUP
350
D
3
ACAD_MLINESTYLE
350
17
0
DICTIONARY
5
D
100
AcDbDictionary
0
DICTIONARY
5
1A
330
C
100
AcDbDictionary
0
DICTIONARY
5
17
100
AcDbDictionary
0
ENDSEC
0
EOF
