0
SECTION
2
HEADER
9
$INSUNITS
70
4
9
$ACADVER
1
AC1014
9
$HANDSEED
5
FFFF
0
ENDSEC
0
SECTION
2
TABLES
0
TABLE
2
VPORT
5
8
100
AcDbSymbolTable
0
ENDTAB
0
TABLE
2
LTYPE
5
5
100
AcDbSymbolTable
0
LTYPE
5
14
100
AcDbSymbolTableRecord
100
AcDbLinetypeTableRecord
2
BYBLOCK
70
0
0
LTYPE
5
15
100
AcDbSymbolTableRecord
100
AcDbLinetypeTableRecord
2
BYLAYER
70
0
0
LTYPE
5
16
100
AcDbSymbolTableRecord
100
AcDbLinetypeTableRecord
2
DASHED
70
0
3
Dashed __ __ __ __ __ __ __ __ __ __ __ __ __ _
72
65
73
2
40
0.75
49
0.5
74
0
49
-0.25
74
0
0
ENDTAB
0
TABLE
2
LAYER
5
2
100
AcDbSymbolTable
70
2
0
LAYER
5
50
100
AcDbSymbolTableRecord
100
AcDbLayerTableRecord
2
0
70
0
62
7
6
CONTINUOUS
0
ENDTAB
0
TABLE
2
STYLE
5
3
100
AcDbSymbolTable
70
1
0
STYLE
5
11
100
AcDbSymbolTableRecord
100
AcDbTextStyleTableRecord
2
STANDARD
70
0
0
ENDTAB
0
TABLE
2
VIEW
5
6
100
AcDbSymbolTable
70
0
0
ENDTAB
0
TABLE
2
UCS
5
7
100
AcDbSymbolTable
70
0
0
ENDTAB
0
TABLE
2
APPID
5
9
100
AcDbSymbolTable
70
2
0
APPID
5
12
100
AcDbSymbolTableRecord
100
AcDbRegAppTableRecord
2
ACAD
70
0
0
ENDTAB
0
TABLE
2
DIMSTYLE
5
A
100
AcDbSymbolTable
70
1
0
ENDTAB
0
TABLE
2
BLOCK_RECORD
5
1
100
AcDbSymbolTable
70
1
0
BLOCK_RECORD
5
1F
100
AcDbSymbolTableRecord
100
AcDbBlockTableRecord
2
*MODEL_SPACE
0
BLOCK_RECORD
5
1B
100
AcDbSymbolTableRecord
100
AcDbBlockTableRecord
2
*PAPER_SPACE
0
ENDTAB
0
ENDSEC
0
SECTION
2
BLOCKS
0
BLOCK
5
20
100
AcDbEntity
100
AcDbBlockBegin
2
*MODEL_SPACE
0
ENDBLK
5
21
100
AcDbEntity
100
AcDbBlockEnd
0
BLOCK
5
1C
100
AcDbEntity
100
AcDbBlockBegin
2
*PAPER_SPACE
0
ENDBLK
5
1D
100
AcDbEntity
100
AcDbBlockEnd
0
ENDSEC
0
SECTION
2
ENTITIES
0
LINE
5
100
100
AcDbEntity
8
0
100
AcDbLine
10
151.18661773577981
20
-47.200000000082298
30
0
11
151.18661773577043
21
-42.799999999991613
31
0
0
LINE
5
101
100
AcDbEntity
8
0
100
AcDbLine
10
150.38661773577044
20
-41.999999999990294
30
0
11
75.630638000193187
21
-41.999999999990429
31
0
0
LINE
5
102
100
AcDbEntity
8
0
100
AcDbLine
10
74.83063800017446
20
-42.800000000005895
30
0
11
74.830638000163688
21
-47.199999999996479
31
0
0
ARC
5
103
100
AcDbEntity
8
0
100
AcDbCircle
10
75.630638000164197
20
-47.199999999998433
30
0
40
0.80000000000050697
210
0
220
0
230
1
100
AcDbArc
50
180
51
270
0
ARC
5
104
100
AcDbEntity
8
0
100
AcDbCircle
10
75.630638000193187
20
-42.800000000007898
30
0
40
0.80000000001747118
210
0
220
-0
230
1
100
AcDbArc
50
90
51
180
0
ARC
5
105
100
AcDbEntity
8
0
100
AcDbCircle
10
150.38661773577044
20
-42.799999999993318
30
0
40
0.79999999999998295
210
-0
220
0
230
1
100
AcDbArc
50
0
51
90
0
ARC
5
106
100
AcDbEntity
8
0
100
AcDbCircle
10
150.38661773587353
20
-47.200000000084003
30
0
40
0.79999999990629789
210
0
220
0
230
1
100
AcDbArc
50
-90
51
0
0
ARC
5
107
100
AcDbEntity
8
0
100
AcDbCircle
10
104.14558135069998
20
-50.800031496800003
30
0
40
0.80003149702402321
210
-0
220
0
230
1
100
AcDbArc
50
-33.652193058057328
51
89.998664394856036
0
ARC
5
108
100
AcDbEntity
8
0
100
AcDbCircle
10
92.68999534809403
20
-50.800001509430004
30
0
40
0.8000015094435291
210
0
220
-0
230
1
100
AcDbArc
50
89.999666832405296
51
240.07311278943706
0
ARC
5
109
100
AcDbEntity
8
0
100
AcDbCircle
10
88.199999880048011
20
-58.599999813470006
30
0
40
8.2000006754485177
210
0
220
0
230
1
100
AcDbArc
50
-111.47210040482572
51
60.073563361663645
0
ARC
5
110
100
AcDbEntity
8
0
100
AcDbCircle
10
84.905591963931997
20
-66.975397094270008
30
0
40
0.8000217213133608
210
0
220
-0
230
1
100
AcDbArc
50
68.530471215850042
51
185.25673337352259
0
ARC
5
111
100
AcDbEntity
8
0
100
AcDbCircle
10
71.561743075417013
20
-68.203570754569995
30
0
40
12.600228788026007
210
-0
220
0
230
1
100
AcDbArc
50
-41.357303584367202
51
5.2588379052731558
0
ARC
5
112
100
AcDbEntity
8
0
100
AcDbCircle
10
81.619942877411063
20
-77.057791070090019
30
0
40
0.79994287746109383
210
0
220
0
230
1
100
AcDbArc
50
138.64072584484148
51
180.00063960297572
0
LINE
5
113
100
AcDbEntity
8
0
100
AcDbLine
10
80.819999999999851
20
-77.057800000000015
30
0
11
80.819999999999993
21
-78.962177999999994
31
0
0
ARC
5
114
100
AcDbEntity
8
0
100
AcDbCircle
10
81.620015108038984
20
-78.96216289196002
30
0
40
0.80001510818165367
210
0
220
0
230
1
100
AcDbArc
50
180.00108201284434
51
269.99891798684621
0
ARC
5
115
100
AcDbEntity
8
0
100
AcDbCircle
10
94.931463935878014
20
-78.962295620370043
30
0
40
0.7998823811886856
210
0
220
0
230
1
100
AcDbArc
50
269.99642308028604
51
315.67314118847645
0
ARC
5
116
100
AcDbEntity
8
0
100
AcDbCircle
10
97.899997259815009
20
-81.86218266548002
30
0
40
3.3500014369032245
210
-0
220
0
230
1
100
AcDbArc
50
-9.710682843986806
51
135.66948661510366
0
ARC
5
117
100
AcDbEntity
8
0
100
AcDbCircle
10
119.19995982256023
20
-67.343427492129905
30
0
40
0.80004017763100044
210
0
220
-0
230
1
100
AcDbArc
50
0.0012527184209569961
51
44.999357612743594
0
LINE
5
118
100
AcDbEntity
8
0
100
AcDbLine
10
119.7656800000033
20
-66.777719999996691
30
0
11
109.46727600000001
21
-56.479315999999997
31
0
0
ARC
5
119
100
AcDbEntity
8
0
100
AcDbCircle
10
108.89829605849003
20
-57.041613771179996
30
0
40
0.7999480966379573
210
0
220
-0
230
1
100
AcDbArc
50
44.661572307953243
51
108.23357983898556
0
ARC
5
120
100
AcDbEntity
8
0
100
AcDbCircle
10
107.60000859217001
20
-53.099971305690005
30
0
40
3.3500035274777118
210
0
220
0
230
1
100
AcDbArc
50
146.34374594019891
51
288.23002291045049
0
ARC
5
121
100
AcDbEntity
8
0
100
AcDbCircle
10
122.79998647563998
20
-83.928304874960006
30
0
40
0.79999744896762592
210
0
220
0
230
1
100
AcDbArc
50
180.30009792959558
51
236.85285449309947
0
ARC
5
122
100
AcDbEntity
8
0
100
AcDbCircle
10
135.38423099885
20
-97.102295579209994
30
0
40
3.3491565262350083
210
0
220
-0
230
1
100
AcDbArc
50
44.998531177363674
51
56.851709042524021
0
LINE
5
123
100
AcDbEntity
8
0
100
AcDbLine
10
137.75250299999777
20
-94.734145000002229
30
0
11
143.54531500000002
21
-100.52695700000001
31
0
0
ARC
5
124
100
AcDbEntity
8
0
100
AcDbCircle
10
145.52521599999002
20
-98.547059999989997
30
0
40
2.800000017930377
210
0
220
0
230
1
100
AcDbArc
50
-135.00005787718766
51
45.000057871345909
0
ARC
5
125
100
AcDbEntity
8
0
100
AcDbCircle
10
141.84828905849002
20
-92.041613771179954
30
0
40
0.79994809663793243
210
0
220
-0
230
1
100
AcDbArc
50
44.661572307951083
51
108.23357983898603
0
ARC
5
126
100
AcDbEntity
8
0
100
AcDbCircle
10
140.54999137853
20
-88.099984978630005
30
0
40
3.3499933984950032
210
0
220
0
230
1
100
AcDbArc
50
236.85279642063284
51
288.23026198554572
0
LINE
5
127
100
AcDbEntity
8
0
100
AcDbLine
10
138.718242
20
-90.904829000000007
30
0
11
129.42759599999999
21
-84.837383000000003
31
0
0
ARC
5
128
100
AcDbEntity
8
0
100
AcDbCircle
10
131.14999195447001
20
-82.200000044180001
30
0
40
3.1499899491320003
210
0
220
-0
230
1
100
AcDbArc
50
61.412522606229167
51
236.85264762155415
0
LINE
5
129
100
AcDbEntity
8
0
100
AcDbLine
10
132.65726199999929
20
-79.434033000001293
30
0
11
132.65727200000001
21
-79.434015000000002
31
0
0
LINE
5
130
100
AcDbEntity
8
0
100
AcDbLine
10
132.65727200000001
20
-79.434015000000002
30
0
11
133.207696
21
-79.733959999999996
31
0
0
ARC
5
131
100
AcDbEntity
8
0
100
AcDbCircle
10
134.04999339303001
20
-78.199999855119998
30
0
40
1.7499996069672299
210
0
220
0
230
1
100
AcDbArc
50
241.22881499242513
51
359.99999524638952
0
ARC
5
132
100
AcDbEntity
8
0
100
AcDbCircle
10
134.04999301827999
20
-66.200000393029995
30
0
40
1.7500099800932223
210
0
220
0
230
1
100
AcDbArc
50
-0.1936788715419826
51
118.58745216751552
0
LINE
5
133
100
AcDbEntity
8
0
100
AcDbLine
10
133.2126139999977
20
-64.663337999995775
30
0
11
132.65726100000001
21
-64.965968000000004
31
0
0
ARC
5
134
100
AcDbEntity
8
0
100
AcDbCircle
10
131.14999288349
20
-62.200000460779997
30
0
40
3.1499894607830048
210
0
220
-0
230
1
100
AcDbArc
50
89.999997880776732
51
298.58744227543116
0
LINE
5
135
100
AcDbEntity
8
0
100
AcDbLine
10
131.14999299999999
20
-59.050010999996999
30
0
11
131.14999299999999
21
-59.049988999999997
31
0
0
LINE
5
136
100
AcDbEntity
8
0
100
AcDbLine
10
131.14999299999999
20
-59.049988999999997
30
0
11
135.00399200000001
21
-59.049988999999997
31
0
0
ARC
5
137
100
AcDbEntity
8
0
100
AcDbCircle
10
134.99999498871998
20
-58.250000973870002
30
0
40
0.79999801127911807
210
0
220
0
230
1
100
AcDbArc
50
-89.71373325109623
51
6.9743430849598728e-05
0
ARC
5
138
100
AcDbEntity
8
0
100
AcDbCircle
10
134.99999154912001
20
-50.800001450870013
30
0
40
0.80000145088131913
210
0
220
-0
230
1
100
AcDbArc
50
0.00010390814622045157
51
89.999896088564313
0
ARC
5
139
100
AcDbEntity
8
0
100
AcDbCircle
10
122.79999445086999
20
-50.800001450869985
30
0
40
0.80000145087130048
210
0
220
0
230
1
100
AcDbArc
50
90.000103910720213
51
179.9998960918538
0
LINE
5
140
100
AcDbEntity
8
0
100
AcDbLine
10
121.99999299999932
20
-50.799999999999997
30
0
11
121.99999300000002
21
-52.200000000000003
31
0
0
ARC
5
141
100
AcDbEntity
8
0
100
AcDbCircle
10
121.19999154912001
20
-52.199998549120004
30
0
40
0.80000145087200214
210
-0
220
0
230
1
100
AcDbArc
50
270.00010391143775
51
359.9998960883463
0
LINE
5
142
100
AcDbEntity
8
0
100
AcDbLine
10
121.19999300000002
20
-52.999999999990692
30
0
11
119.39999299999999
21
-53.000000000000007
31
0
0
ARC
5
143
100
AcDbEntity
8
0
100
AcDbCircle
10
119.39999299999999
20
-55.799999999999997
30
0
40
2.7999999999999936
210
0
220
-0
230
1
100
AcDbArc
50
90
51
270
0
LINE
5
144
100
AcDbEntity
8
0
100
AcDbLine
10
119.39999299999999
20
-58.600000000000001
30
0
11
121.19999300000002
21
-58.600000000000001
31
0
0
ARC
5
145
100
AcDbEntity
8
0
100
AcDbCircle
10
121.19999325624001
20
-59.399999743760006
30
0
40
0.80000074376001096
210
-0
220
0
230
1
100
AcDbArc
50
-1.8351168930218065e-05
51
90.000018351843025
0
LINE
5
146
100
AcDbEntity
8
0
100
AcDbLine
10
151.18661773577077
20
-121.76217600002624
30
0
11
151.18661773576258
21
-117.36217600001186
31
0
0
ARC
5
147
100
AcDbEntity
8
0
100
AcDbCircle
10
150.38661773576254
20
-117.36217600001336
30
0
40
0.80000000000001847
210
-0
220
0
230
1
100
AcDbArc
50
0
51
90
0
ARC
5
148
100
AcDbEntity
8
0
100
AcDbCircle
10
75.630638000012425
20
-117.36217600002648
30
0
40
0.80000000001314575
210
0
220
-0
230
1
100
AcDbArc
50
90
51
180
0
LINE
5
149
100
AcDbEntity
8
0
100
AcDbLine
10
74.830637999999269
20
-117.36217600002345
30
0
11
74.830637999982528
21
-121.76217600001031
31
0
0
ARC
5
150
100
AcDbEntity
8
0
100
AcDbCircle
10
75.630637999980493
20
-121.76217600001335
30
0
40
0.79999999999796678
210
0
220
0
230
1
100
AcDbArc
50
180
51
270
0
LINE
5
151
100
AcDbEntity
8
0
100
AcDbLine
10
75.630637999980493
20
-122.56217600001334
30
0
11
150.38661773578519
21
-122.56217600001334
31
0
0
ARC
5
152
100
AcDbEntity
8
0
100
AcDbCircle
10
150.38661773578519
20
-121.76217600002774
30
0
40
0.79999999998559446
210
0
220
0
230
1
100
AcDbArc
50
-90
51
0
0
LINE
5
153
100
AcDbEntity
8
0
100
AcDbLine
10
94.342286498472333
20
-47.999999999990294
30
0
11
75.630638000164197
21
-47.999999999990656
31
0
0
ARC
5
154
100
AcDbEntity
8
0
100
AcDbCircle
10
126.70443300607828
20
-48.999999999990379
30
0
40
0.99999999999999645
210
0
220
0
230
1
100
AcDbArc
50
-89.999999999997556
51
90
0
ARC
5
155
100
AcDbEntity
8
0
100
AcDbCircle
10
130.70443300607013
20
-48.999999999999559
30
0
40
0.99999999999995204
210
0
220
-0
230
1
100
AcDbArc
50
90
51
270.00000000000324
0
LINE
5
156
100
AcDbEntity
8
0
100
AcDbLine
10
126.70443300607832
20
-49.999999999990372
30
0
11
122.799993
21
-50
31
0
0
LINE
5
157
100
AcDbEntity
8
0
100
AcDbLine
10
130.70443300607019
20
-49.999999999999559
30
0
11
134.99999299999999
21
-49.999999999999318
31
0
0
LINE
5
158
100
AcDbEntity
8
0
100
AcDbLine
10
121.99999779321965
20
-74.909523636391086
30
0
11
122.00000000000001
21
-83.932495000000017
31
0
0
LINE
5
159
100
AcDbEntity
8
0
100
AcDbLine
10
121.99999681492545
20
-70.909523636391242
30
0
11
121.99999399999997
21
-59.399999999999451
31
0
0
ARC
5
160
100
AcDbEntity
8
0
100
AcDbCircle
10
138.59999299998972
20
-65.649708757147323
30
0
40
0.80000000000000071
210
0
220
0
230
1
100
AcDbArc
50
180
51
270
0
LINE
5
161
100
AcDbEntity
8
0
100
AcDbLine
10
138.59999299998972
20
-66.44970875714732
30
0
11
144.63661773577019
21
-66.449708757147349
31
0
0
LINE
5
162
100
AcDbEntity
8
0
100
AcDbLine
10
146.23661773577072
20
-78.776708757147318
30
0
11
150.38661773577073
21
-78.776708757147304
31
0
0
ARC
5
163
100
AcDbEntity
8
0
100
AcDbCircle
10
150.38661773577073
20
-77.976708757147307
30
0
40
0.80000000000000959
210
-0
220
0
230
1
100
AcDbArc
50
-90
51
0
0
LINE
5
164
100
AcDbEntity
8
0
100
AcDbLine
10
151.18661773577074
20
-77.976708757147307
30
0
11
151.18661773577048
21
-50.799999999985133
31
0
0
ARC
5
165
100
AcDbEntity
8
0
100
AcDbCircle
10
138.59999300000001
20
-50.800000000000026
30
0
40
0.80000000000000959
210
0
220
-0
230
1
100
AcDbArc
50
89.999999999997954
51
180
0
LWPOLYLINE
5
166
100
AcDbEntity
8
0
100
AcDbPolyline
90
4
70
1
43
0.0
10
139.34999300000263
20
-55.312427189286026
42
0.99999999999999989
10
142.5499929999938
20
-55.312427189277216
10
142.5499929999938
20
-52.912427189281843
42
1.0000015246419256
10
139.34999299999669
20
-52.912432068162332
0
LWPOLYLINE
5
167
100
AcDbEntity
8
0
100
AcDbPolyline
90
4
70
1
43
0.0
10
139.34999299999669
20
-63.537276688978338
42
1.0000015246419256
10
142.5499929999938
20
-63.537281567888812
10
142.5499929999938
20
-61.137281567858786
42
0.99999999999999989
10
139.34999300000263
20
-61.137281567858786
0
LINE
5
168
100
AcDbEntity
8
0
100
AcDbLine
10
135.79999299999679
20
-55.996497313267199
30
0
11
135.7999929999954
21
-58.25
31
0
0
LINE
5
169
100
AcDbEntity
8
0
100
AcDbLine
10
138.59999299999674
20
-68.449708757147349
30
0
11
142.6366177357703
21
-68.449708757147349
31
0
0
ARC
5
170
100
AcDbEntity
8
0
100
AcDbCircle
10
136.79999299999662
20
-71.097785819654689
30
0
40
0.99999999999999645
210
0
220
0
230
1
100
AcDbArc
50
-180
51
0
0
ARC
5
171
100
AcDbEntity
8
0
100
AcDbCircle
10
136.79999299999662
20
-75.097785819654689
30
0
40
0.99999999999999645
210
0
220
-0
230
1
100
AcDbArc
50
0
51
180
0
LINE
5
172
100
AcDbEntity
8
0
100
AcDbLine
10
143.43661773577031
20
-69.249708757147346
30
0
11
143.43661773577034
21
-71.097785819654689
31
0
0
LINE
5
173
100
AcDbEntity
8
0
100
AcDbLine
10
137.79999299999673
20
-83.702243164768376
30
0
11
137.79999299999662
21
-75.097785819654689
31
0
0
LINE
5
174
100
AcDbEntity
8
0
100
AcDbLine
10
135.79999299999662
20
-71.097785819654263
30
0
11
135.799993
21
-66.205916000000002
31
0
0
LINE
5
175
100
AcDbEntity
8
0
100
AcDbLine
10
135.79999299999662
20
-75.097785819654263
30
0
11
135.79999299999503
21
-78.200000000000017
31
0
0
ARC
5
176
100
AcDbEntity
8
0
100
AcDbCircle
10
144.43661773577048
20
-75.097785819654689
30
0
40
1.0000000000000853
210
-0
220
0
230
1
100
AcDbArc
50
0
51
180.0781576267658
0
ARC
5
177
100
AcDbEntity
8
0
100
AcDbCircle
10
144.43661773577037
20
-71.097785819654689
30
0
40
1.0000000000000142
210
0
220
0
230
1
100
AcDbArc
50
-180
51
0
0
LINE
5
178
100
AcDbEntity
8
0
100
AcDbLine
10
145.43661773577074
20
-77.97670875714735
30
0
11
145.43661773577057
21
-75.097785819654618
31
0
0
LINE
5
179
100
AcDbEntity
8
0
100
AcDbLine
10
145.43661773577037
20
-71.097785819654646
30
0
11
145.43661773577017
21
-67.249708757147303
31
0
0
ARC
5
180
100
AcDbEntity
8
0
100
AcDbCircle
10
142.49330536788446
20
-48.999999999987608
30
0
40
1.0000000000075016
210
0
220
0
230
1
100
AcDbArc
50
-89.999999999928349
51
90
0
ARC
5
181
100
AcDbEntity
8
0
100
AcDbCircle
10
146.49330536788489
20
-48.999999999961361
30
0
40
0.99999999999999645
210
0
220
-0
230
1
100
AcDbArc
50
90
51
270.00000000007327
0
LINE
5
182
100
AcDbEntity
8
0
100
AcDbLine
10
146.49330536788617
20
-49.999999999961354
30
0
11
150.38661773576942
21
-49.999999999985143
31
0
0
LINE
5
183
100
AcDbEntity
8
0
100
AcDbLine
10
142.49330536788571
20
-49.999999999995104
30
0
11
138.59999300000004
21
-50.000000000000014
31
0
0
ARC
5
184
100
AcDbEntity
8
0
100
AcDbCircle
10
136.79999299999852
20
-55.649830254207622
30
0
40
1.0000000000014175
210
-0
220
0
230
1
100
AcDbArc
50
0
51
180
0
ARC
5
185
100
AcDbEntity
8
0
100
AcDbCircle
10
136.79999299999997
20
-51.649830254207615
30
0
40
1.0000000000002629
210
0
220
0
230
1
100
AcDbArc
50
180
51
360
0
LINE
5
186
100
AcDbEntity
8
0
100
AcDbLine
10
135.79999299999704
20
-55.649830254207004
30
0
11
135.79999299999679
21
-55.996497313267199
31
0
0
LINE
5
187
100
AcDbEntity
8
0
100
AcDbLine
10
135.799993
20
-50.799999999999997
30
0
11
135.79999299999972
21
-51.649830254206996
31
0
0
ARC
5
188
100
AcDbEntity
8
0
100
AcDbCircle
10
146.23661773577075
20
-77.976708757147307
30
0
40
0.80000000000001847
210
0
220
0
230
1
100
AcDbArc
50
180
51
269.99999999999795
0
ARC
5
189
100
AcDbEntity
8
0
100
AcDbCircle
10
150.38661773577047
20
-50.799999999985133
30
0
40
0.80000000000000071
210
0
220
0
230
1
100
AcDbArc
50
0
51
90.000000000075303
0
ARC
5
190
100
AcDbEntity
8
0
100
AcDbCircle
10
144.63661773577016
20
-67.249708757147346
30
0
40
0.80000000000000071
210
0
220
-0
230
1
100
AcDbArc
50
0
51
89.999999999997954
0
LINE
5
191
100
AcDbEntity
8
0
100
AcDbLine
10
137.79999299999997
20
-51.649830254207636
30
0
11
137.799993
21
-50.800000000000018
31
0
0
LINE
5
192
100
AcDbEntity
8
0
100
AcDbLine
10
137.79999299999992
20
-55.649830254207643
30
0
11
137.79999299998971
21
-65.649708757146755
31
0
0
LINE
5
193
100
AcDbEntity
8
0
100
AcDbLine
10
146.49330536788489
20
-47.999999999961361
30
0
11
150.38661773587353
21
-47.999999999990301
31
0
0
ARC
5
194
100
AcDbEntity
8
0
100
AcDbCircle
10
101.99049197624001
20
-82.56221629114998
30
0
40
0.79996170888227536
210
0
220
0
230
1
100
AcDbArc
50
170.28595856947413
51
270.00057468698571
0
ARC
5
195
100
AcDbEntity
8
0
100
AcDbCircle
10
116.39659978574002
20
-82.562299053730044
30
0
40
0.79987894626998501
210
0
220
0
230
1
100
AcDbArc
50
270.00001534756336
51
329.99996086621968
0
LINE
5
196
100
AcDbEntity
8
0
100
AcDbLine
10
117.08931499999279
20
-82.962238999995833
30
0
11
119.890415
21
-78.110591999999997
31
0
0
ARC
5
197
100
AcDbEntity
8
0
100
AcDbCircle
10
119.19962104445
20
-77.706351742489971
30
0
40
0.80037895700486261
210
0
220
0
230
1
100
AcDbArc
50
329.66459316921686
51
359.99654544687547
0
LINE
5
198
100
AcDbEntity
8
0
100
AcDbLine
10
142.49330536788446
20
-47.999999999987608
30
0
11
130.70443300607013
21
-47.999999999999609
31
0
0
LINE
5
199
100
AcDbEntity
8
0
100
AcDbLine
10
126.70443300607828
20
-47.999999999990379
30
0
11
98.342286498472333
21
-47.999999999990294
31
0
0
ARC
5
200
100
AcDbEntity
8
0
100
AcDbCircle
10
94.342286498472333
20
-48.999999999990287
30
0
40
0.99999999999999645
210
0
220
0
230
1
100
AcDbArc
50
-89.999999999987793
51
90
0
ARC
5
201
100
AcDbEntity
8
0
100
AcDbCircle
10
98.342286498472333
20
-48.999999999990287
30
0
40
0.99999999999999645
210
0
220
-0
230
1
100
AcDbArc
50
90
51
270.00000000001222
0
LINE
5
202
100
AcDbEntity
8
0
100
AcDbLine
10
94.342286498472546
20
-49.99999999999028
30
0
11
92.689999999999998
21
-50
31
0
0
LINE
5
203
100
AcDbEntity
8
0
100
AcDbLine
10
98.342286498472546
20
-49.99999999999028
30
0
11
104.14560000000002
21
-49.999999999993349
31
0
0
ARC
5
204
100
AcDbEntity
8
0
100
AcDbCircle
10
120.9999984074627
20
-70.909523880964429
30
0
40
0.99999840746269442
210
0
220
0
230
1
100
AcDbArc
50
-180
51
1.4002928947190925e-05
0
ARC
5
205
100
AcDbEntity
8
0
100
AcDbCircle
10
120.99999889660987
20
-74.9095238809644
30
0
40
0.99999889660981167
210
0
220
-0
230
1
100
AcDbArc
50
1.4002928947190925e-05
51
180
0
LINE
5
206
100
AcDbEntity
8
0
100
AcDbLine
10
120
20
-70.909523880964429
30
0
11
120
21
-67.343410000000006
31
0
0
LINE
5
207
100
AcDbEntity
8
0
100
AcDbLine
10
120
20
-74.9095238809644
30
0
11
120
21
-77.706400000000002
31
0
0
ARC
5
208
100
AcDbEntity
8
0
100
AcDbCircle
10
93.552089427747958
20
-99.962182572250043
30
0
40
0.80000657227903738
210
0
220
-0
230
1
100
AcDbArc
50
0.00047069881460028428
51
89.99952930098668
0
ARC
5
209
100
AcDbEntity
8
0
100
AcDbCircle
10
77.630608741426016
20
-101.96217650120002
30
0
40
2.8000005012005413
210
0
220
0
230
1
100
AcDbArc
50
90.000035634408334
51
245.54536142975149
0
LINE
5
210
100
AcDbEntity
8
0
100
AcDbLine
10
76.471485000000342
20
-104.51098699999925
30
0
11
77.841444999999993
21
-105.128972
31
0
0
LINE
5
211
100
AcDbEntity
8
0
100
AcDbLine
10
77.841444999999993
20
-105.128972
30
0
11
77.841437999999997
21
-105.12898700000001
31
0
0
ARC
5
212
100
AcDbEntity
8
0
100
AcDbCircle
10
76.834006393403996
20
-107.36227619220001
30
0
40
2.4499998077729974
210
-0
220
0
230
1
100
AcDbArc
50
-89.999985814125068
51
65.719974065382175
0
LINE
5
213
100
AcDbEntity
8
0
100
AcDbLine
10
76.834007
20
-109.81227599997294
30
0
11
75.630606999999998
21
-109.812276
31
0
0
ARC
5
214
100
AcDbEntity
8
0
100
AcDbCircle
10
75.630588238769008
20
-110.61222624000001
30
0
40
0.79995024022000827
210
0
220
-0
230
1
100
AcDbArc
50
89.998656242225763
51
180.00356401915869
0
LINE
5
215
100
AcDbEntity
8
0
100
AcDbLine
10
74.830638000000647
20
-110.61227600000001
30
0
11
74.830637999999993
21
-113.76207600000001
31
0
0
ARC
5
216
100
AcDbEntity
8
0
100
AcDbCircle
10
75.630776270929999
20
-113.762105811
30
0
40
0.80013827148534311
210
0
220
0
230
1
100
AcDbArc
50
179.99786531352368
51
270.7474392955869
0
ARC
5
217
100
AcDbEntity
8
0
100
AcDbCircle
10
93.552108885144008
20
-113.76217890450005
30
0
40
0.79999709550218578
210
0
220
0
230
1
100
AcDbArc
50
269.99986498601601
51
359.71379851234718
0
LINE
5
218
100
AcDbEntity
8
0
100
AcDbLine
10
94.352096000000444
20
-113.76617500000002
30
0
11
94.352096000000003
21
-113.16217600000002
31
0
0
LINE
5
219
100
AcDbEntity
8
0
100
AcDbLine
10
94.352096000000003
20
-113.16217600000002
30
0
11
94.352107000000004
21
-113.16217600000002
31
0
0
ARC
5
220
100
AcDbEntity
8
0
100
AcDbCircle
10
95.152108450870998
20
-113.16217745080002
30
0
40
0.80000145087199326
210
0
220
0
230
1
100
AcDbArc
50
90.000103910792461
51
179.99989609536144
0
LINE
5
221
100
AcDbEntity
8
0
100
AcDbLine
10
95.152107000000001
20
-112.36217599992933
30
0
11
96.005506999999994
21
-112.36217600000002
31
0
0
ARC
5
222
100
AcDbEntity
8
0
100
AcDbCircle
10
96.005508600982026
20
-109.56217704970001
30
0
40
2.7999989503004619
210
0
220
0
230
1
100
AcDbArc
50
-90.00003276055277
51
65.719989042971179
0
LINE
5
223
100
AcDbEntity
8
0
100
AcDbLine
10
97.156858000016115
20
-107.00984699996427
30
0
11
95.788967
21
-106.39279399999999
31
0
0
ARC
5
224
100
AcDbEntity
8
0
100
AcDbCircle
10
96.802110265449016
20
-104.1620742451
30
0
40
2.4500142654489987
210
0
220
0
230
1
100
AcDbArc
50
180.00004103446116
51
245.57350832819799
0
LINE
5
225
100
AcDbEntity
8
0
100
AcDbLine
10
94.352096000000643
20
-104.162076
30
0
11
94.352096000000003
21
-99.962176000000014
31
0
0
ARC
5
226
100
AcDbEntity
8
0
100
AcDbCircle
10
93.522146033878997
20
-82.562158966120023
30
0
40
0.79998096634700389
210
0
220
0
230
1
100
AcDbArc
50
-0.001363233510798356
51
90.001363233601282
0
ARC
5
227
100
AcDbEntity
8
0
100
AcDbCircle
10
77.600640953216981
20
-84.562178763800006
30
0
40
2.8000007638015427
210
0
220
0
230
1
100
AcDbArc
50
90.00006043100808
51
245.54533663317696
0
LINE
5
228
100
AcDbEntity
8
0
100
AcDbLine
10
76.441516000001457
20
-87.11098899999682
30
0
11
77.811475999999999
21
-87.728973999999994
31
0
0
LINE
5
229
100
AcDbEntity
8
0
100
AcDbLine
10
77.811475999999999
20
-87.728973999999994
30
0
11
77.811469000000002
21
-87.728988999999999
31
0
0
ARC
5
230
100
AcDbEntity
8
0
100
AcDbCircle
10
76.804037393404002
20
-89.962278192219998
30
0
40
2.4499998077729974
210
-0
220
0
230
1
100
AcDbArc
50
-89.999985814125068
51
65.719974065574448
0
LINE
5
231
100
AcDbEntity
8
0
100
AcDbLine
10
76.804038000000006
20
-92.412277999992924
30
0
11
75.600638000000004
21
-92.412278000000015
31
0
0
ARC
5
232
100
AcDbEntity
8
0
100
AcDbCircle
10
75.600619238769028
20
-93.212228240090013
30
0
40
0.79995024031001627
210
0
220
-0
230
1
100
AcDbArc
50
89.998656242226929
51
180.00356401271617
0
LINE
5
233
100
AcDbEntity
8
0
100
AcDbLine
10
74.800669000000639
20
-93.212278000000012
30
0
11
74.800668999999999
21
-96.362078000000011
31
0
0
ARC
5
234
100
AcDbEntity
8
0
100
AcDbCircle
10
75.600807270930005
20
-96.362107811010006
30
0
40
0.80013827148534344
210
0
220
0
230
1
100
AcDbArc
50
179.99786531284076
51
270.74743929559503
0
ARC
5
235
100
AcDbEntity
8
0
100
AcDbCircle
10
93.522136458841032
20
-96.362177461090027
30
0
40
0.8000005389114685
210
0
220
0
230
1
100
AcDbArc
50
270.00011037730599
51
359.7135531252739
0
LINE
5
236
100
AcDbEntity
8
0
100
AcDbLine
10
94.322126999999597
20
-96.366177000000008
30
0
11
94.322126999999995
21
-95.762178000000006
31
0
0
LINE
5
237
100
AcDbEntity
8
0
100
AcDbLine
10
94.322126999999995
20
-95.762178000000006
30
0
11
94.322137999999995
21
-95.762178000000006
31
0
0
ARC
5
238
100
AcDbEntity
8
0
100
AcDbCircle
10
95.122139450871003
20
-95.762179450870008
30
0
40
0.80000145087199326
210
0
220
0
230
1
100
AcDbArc
50
90.000103910792461
51
179.9998960918538
0
LINE
5
239
100
AcDbEntity
8
0
100
AcDbLine
10
95.122138000000007
20
-94.962177999999327
30
0
11
95.975538
21
-94.962177999999994
31
0
0
ARC
5
240
100
AcDbEntity
8
0
100
AcDbCircle
10
95.975536920029029
20
-92.162178473029996
30
0
40
2.7999995269702134
210
0
220
0
230
1
100
AcDbArc
50
-89.999977900789617
51
65.719934183506851
0
LINE
5
241
100
AcDbEntity
8
0
100
AcDbLine
10
97.126889000002677
20
-89.609848999994099
30
0
11
95.758998000000005
21
-88.992795999999998
31
0
0
ARC
5
242
100
AcDbEntity
8
0
100
AcDbCircle
10
96.772136829005007
20
-86.762079102810006
30
0
40
2.4500098290049972
210
0
220
0
230
1
100
AcDbArc
50
179.99997421660132
51
245.57357515617028
0
ARC
5
243
100
AcDbEntity
8
0
100
AcDbCircle
10
120.00533772907004
20
-99.962316188979997
30
0
40
0.80013827148497974
210
0
220
0
230
1
100
AcDbArc
50
-0.0021346880129480966
51
90.747439295606256
0
ARC
5
244
100
AcDbEntity
8
0
100
AcDbCircle
10
102.08400511485002
20
-99.962243095430026
30
0
40
0.79999709543225062
210
0
220
-0
230
1
100
AcDbArc
50
89.999864985587479
51
179.71379851735566
0
LINE
5
245
100
AcDbEntity
8
0
100
AcDbLine
10
101.28401799999315
20
-99.958246999999972
30
0
11
101.284018
21
-100.562246
31
0
0
LINE
5
246
100
AcDbEntity
8
0
100
AcDbLine
10
101.284018
20
-100.562246
30
0
11
101.284007
21
-100.562246
31
0
0
ARC
5
247
100
AcDbEntity
8
0
100
AcDbCircle
10
100.48400554912
20
-100.56224454910001
30
0
40
0.80000145087199326
210
-0
220
0
230
1
100
AcDbArc
50
270.00010391143877
51
359.9998960883463
0
LINE
5
248
100
AcDbEntity
8
0
100
AcDbLine
10
100.48400700000002
20
-101.3622459999707
30
0
11
99.630606999999998
21
-101.362246
31
0
0
ARC
5
249
100
AcDbEntity
8
0
100
AcDbCircle
10
99.630605399018009
20
-104.16224495020001
30
0
40
2.7999989502004534
210
0
220
-0
230
1
100
AcDbArc
50
89.999967239448068
51
245.71998904381221
0
LINE
5
250
100
AcDbEntity
8
0
100
AcDbLine
10
98.479256000021394
20
-106.71457499995263
30
0
11
99.847147000000007
21
-107.33162800000001
31
0
0
ARC
5
251
100
AcDbEntity
8
0
100
AcDbCircle
10
98.834003734551018
20
-109.5623477548
30
0
40
2.4500142654489987
210
0
220
-0
230
1
100
AcDbArc
50
4.1034461177990572e-05
51
65.573508327231508
0
LINE
5
252
100
AcDbEntity
8
0
100
AcDbLine
10
101.28401799999938
20
-109.56234600000002
30
0
11
101.284018
21
-113.762246
31
0
0
ARC
5
253
100
AcDbEntity
8
0
100
AcDbCircle
10
102.08402457224999
20
-113.7622394277
30
0
40
0.80000657227697725
210
0
220
0
230
1
100
AcDbArc
50
180.00047070191181
51
269.99952930113528
0
ARC
5
254
100
AcDbEntity
8
0
100
AcDbCircle
10
118.00550525857
20
-111.76224549870001
30
0
40
2.8000005013005325
210
0
220
0
230
1
100
AcDbArc
50
-89.999964365509967
51
65.545361428830162
0
LINE
5
255
100
AcDbEntity
8
0
100
AcDbLine
10
119.16462900003665
20
-109.21343499991943
30
0
11
117.79466900000001
21
-108.59545
31
0
0
LINE
5
256
100
AcDbEntity
8
0
100
AcDbLine
10
117.79466900000001
20
-108.59545
30
0
11
117.79467600000001
21
-108.59543500000001
31
0
0
ARC
5
257
100
AcDbEntity
8
0
100
AcDbCircle
10
118.80210760659
20
-106.36214580770002
30
0
40
2.4499998077729974
210
0
220
0
230
1
100
AcDbArc
50
90.000014185734372
51
245.71997406647182
0
LINE
5
258
100
AcDbEntity
8
0
100
AcDbLine
10
118.80210700000001
20
-103.91214599992709
30
0
11
120.00550699999999
21
-103.91214600000001
31
0
0
ARC
5
259
100
AcDbEntity
8
0
100
AcDbCircle
10
120.00552576122999
20
-103.11219575990002
30
0
40
0.79995024031999928
210
0
220
0
230
1
100
AcDbArc
50
-90.001343757702813
51
0.0035640120003344053
0
LINE
5
260
100
AcDbEntity
8
0
100
AcDbLine
10
120.80547599999838
20
-103.112146
30
0
11
120.80547599999967
21
-99.962346000000011
31
0
0
ARC
5
261
100
AcDbEntity
8
0
100
AcDbCircle
10
140.55208572059999
20
-99.962185279389985
30
0
40
0.80000827944098785
210
0
220
-0
230
1
100
AcDbArc
50
0.00059296162481032254
51
89.99940703778914
0
ARC
5
262
100
AcDbEntity
8
0
100
AcDbCircle
10
124.63060769061002
20
-101.96217770680002
30
0
40
2.8000007068013093
210
0
220
0
230
1
100
AcDbArc
50
90.000055057342635
51
245.5453420076162
0
LINE
5
263
100
AcDbEntity
8
0
100
AcDbLine
10
123.47148300003551
20
-104.51098799992194
30
0
11
124.841443
21
-105.128973
31
0
0
LINE
5
264
100
AcDbEntity
8
0
100
AcDbLine
10
124.841443
20
-105.128973
30
0
11
124.84143600000002
21
-105.12898800000002
31
0
0
ARC
5
265
100
AcDbEntity
8
0
100
AcDbCircle
10
123.83400439340001
20
-107.3622771922
30
0
40
2.4499998077729974
210
-0
220
0
230
1
100
AcDbArc
50
-89.999985814031689
51
65.719974065296469
0
LINE
5
266
100
AcDbEntity
8
0
100
AcDbLine
10
123.834005
20
-109.81227699997292
30
0
11
122.63060500000002
21
-109.81227699999999
31
0
0
ARC
5
267
100
AcDbEntity
8
0
100
AcDbCircle
10
122.63058453184001
20
-110.61222553320002
30
0
40
0.79994853346188122
210
0
220
-0
230
1
100
AcDbArc
50
89.998533981708064
51
180.00368627516764
0
LINE
5
268
100
AcDbEntity
8
0
100
AcDbLine
10
121.83063599999763
20
-110.61227700000002
30
0
11
121.830636
21
-113.76207700000002
31
0
0
ARC
5
269
100
AcDbEntity
8
0
100
AcDbCircle
10
122.63071101024002
20
-113.7621708999
30
0
40
0.80007501575023898
210
0
220
0
230
1
100
AcDbArc
50
179.99327554558784
51
270.75202906938364
0
ARC
5
270
100
AcDbEntity
8
0
100
AcDbCircle
10
140.55210688514001
20
-113.76217990450002
30
0
40
0.79999709550222131
210
0
220
0
230
1
100
AcDbArc
50
269.99986498630301
51
359.71379851234718
0
LINE
5
271
100
AcDbEntity
8
0
100
AcDbLine
10
141.3520939999965
20
-113.766176
30
0
11
141.35209400000002
21
-113.16217700000001
31
0
0
LINE
5
272
100
AcDbEntity
8
0
100
AcDbLine
10
141.35209400000002
20
-113.16217700000001
30
0
11
141.35210499999999
21
-113.16217700000001
31
0
0
ARC
5
273
100
AcDbEntity
8
0
100
AcDbCircle
10
142.15210645087001
20
-113.16217845080001
30
0
40
0.80000145087199326
210
0
220
0
230
1
100
AcDbArc
50
90.000103910721208
51
179.99989609536144
0
LINE
5
274
100
AcDbEntity
8
0
100
AcDbLine
10
142.15210500000001
20
-112.36217699992933
30
0
11
143.005505
21
-112.362177
31
0
0
ARC
5
275
100
AcDbEntity
8
0
100
AcDbCircle
10
143.00550660098003
20
-109.56217804970001
30
0
40
2.7999989503004619
210
0
220
0
230
1
100
AcDbArc
50
-90.000032760511814
51
65.719989042933307
0
LINE
5
276
100
AcDbEntity
8
0
100
AcDbLine
10
144.15685600001581
20
-107.00984799996502
30
0
11
142.78896499999999
21
-106.39279500000001
31
0
0
ARC
5
277
100
AcDbEntity
8
0
100
AcDbCircle
10
143.80210826544001
20
-104.1620752451
30
0
40
2.4500142654489987
210
0
220
0
230
1
100
AcDbArc
50
180.00004103446116
51
245.57350832838964
0
LINE
5
278
100
AcDbEntity
8
0
100
AcDbLine
10
141.35209399999164
20
-104.16207700000001
30
0
11
141.35209399999815
21
-99.962177000000011
31
0
0
ARC
5
279
100
AcDbEntity
8
0
100
AcDbCircle
10
135.25536619103198
20
-96.362245999992808
30
0
40
0.80000000000000071
210
0
220
0
230
1
100
AcDbArc
50
-90
51
56.852633914140085
0
ARC
5
280
100
AcDbEntity
8
0
100
AcDbCircle
10
119.63673252921238
20
-86.162177999998164
30
0
40
0.80000000000000626
210
0
220
-0
230
1
100
AcDbArc
50
56.852633914139226
51
90
0
ARC
5
281
100
AcDbEntity
8
0
100
AcDbCircle
10
102.00199999999926
20
-96.362245999993078
30
0
40
0.80000000000000071
210
0
220
0
230
1
100
AcDbArc
50
180
51
270
0
LINE
5
282
100
AcDbEntity
8
0
100
AcDbLine
10
143.43661866616546
20
-75.099149927154286
30
0
11
143.43661866616569
21
-79.97670875714735
31
0
0
ARC
5
283
100
AcDbEntity
8
0
100
AcDbCircle
10
138.59999299999674
20
-83.702243164768348
30
0
40
0.80000000000000071
210
0
220
0
230
1
100
AcDbArc
50
180
51
225.0000056306514
0
LINE
5
284
100
AcDbEntity
8
0
100
AcDbLine
10
151.18661773577077
20
-81.576708757147316
30
0
11
151.18661773577077
21
-94.563231438564813
31
0
0
LINE
5
285
100
AcDbEntity
8
0
100
AcDbLine
10
149.46098340848624
20
-95.363231438564839
30
0
11
150.38661773577076
21
-95.36323143856481
31
0
0
ARC
5
286
100
AcDbEntity
8
0
100
AcDbCircle
10
142.6366177357703
20
-69.24970875714736
30
0
40
0.80000000000000071
210
0
220
-0
230
1
100
AcDbArc
50
0
51
90
0
ARC
5
287
100
AcDbEntity
8
0
100
AcDbCircle
10
138.59999299999674
20
-69.24970875714736
30
0
40
0.80000000000000071
210
0
220
-0
230
1
100
AcDbArc
50
90
51
180
0
ARC
5
288
100
AcDbEntity
8
0
100
AcDbCircle
10
149.46098340848624
20
-94.563231438564856
30
0
40
0.79999999999996962
210
0
220
0
230
1
100
AcDbArc
50
225.0000056306514
51
270
0
ARC
5
289
100
AcDbEntity
8
0
100
AcDbCircle
10
150.38661773577076
20
-94.563231438564813
30
0
40
0.80000000000000071
210
-0
220
0
230
1
100
AcDbArc
50
-90
51
0
0
ARC
5
290
100
AcDbEntity
8
0
100
AcDbCircle
10
150.38661773577078
20
-81.576708757147316
30
0
40
0.80000000000000071
210
0
220
-0
230
1
100
AcDbArc
50
0
51
90
0
ARC
5
291
100
AcDbEntity
8
0
100
AcDbCircle
10
144.23661866616573
20
-79.976708757147307
30
0
40
0.80000000000003624
210
0
220
0
230
1
100
AcDbArc
50
180
51
269.99999999999795
0
ARC
5
292
100
AcDbEntity
8
0
100
AcDbCircle
10
83.753095124183886
20
-80.762177999999579
30
0
40
0.99999999999903721
210
0
220
0
230
1
100
AcDbArc
50
-89.99999999999838
51
89.999999999967429
0
ARC
5
293
100
AcDbEntity
8
0
100
AcDbCircle
10
87.753095124183886
20
-80.762178000000461
30
0
40
0.99999999999771383
210
0
220
-0
230
1
100
AcDbArc
50
89.999999999967429
51
270.00000000000159
0
LINE
5
294
100
AcDbEntity
8
0
100
AcDbLine
10
87.753095124184455
20
-79.762178000002748
30
0
11
94.931414000000004
21
-79.762178000000006
31
0
0
LINE
5
295
100
AcDbEntity
8
0
100
AcDbLine
10
81.620000000000005
20
-79.762177999999338
30
0
11
83.753095124184455
21
-79.762178000000546
31
0
0
LINE
5
296
100
AcDbEntity
8
0
100
AcDbLine
10
83.753095124183915
20
-81.762177999998613
30
0
11
77.600638000000004
21
-81.76217800000002
31
0
0
LINE
5
297
100
AcDbEntity
8
0
100
AcDbLine
10
87.753095124183915
20
-81.762177999998187
30
0
11
93.522127000000012
21
-81.762177999999452
31
0
0
ARC
5
298
100
AcDbEntity
8
0
100
AcDbCircle
10
112.40540112897143
20
-84.3621779999974
30
0
40
0.99999999999999645
210
0
220
-0
230
1
100
AcDbArc
50
89.999999999975572
51
270
0
ARC
5
299
100
AcDbEntity
8
0
100
AcDbCircle
10
108.40540112897143
20
-84.3621779999974
30
0
40
0.99999999999999645
210
0
220
0
230
1
100
AcDbArc
50
-90
51
89.999999999975572
0
LINE
5
300
100
AcDbEntity
8
0
100
AcDbLine
10
108.40540112897186
20
-83.362177999997414
30
0
11
101.9905
21
-83.362177999993762
31
0
0
LINE
5
301
100
AcDbEntity
8
0
100
AcDbLine
10
102.00199999999926
20
-85.362177999997613
30
0
11
108.40540112897143
21
-85.3621779999974
31
0
0
LINE
5
302
100
AcDbEntity
8
0
100
AcDbLine
10
112.40540112897143
20
-85.3621779999974
30
0
11
119.63673252921238
21
-85.362177999998167
31
0
0
LINE
5
303
100
AcDbEntity
8
0
100
AcDbLine
10
116.39660000000001
20
-83.362178
30
0
11
112.40540112897186
21
-83.362177999997414
31
0
0
ARC
5
304
100
AcDbEntity
8
0
100
AcDbCircle
10
133.52198887625403
20
-93.080376596110725
30
0
40
1.0000000000000102
210
0
220
-0
230
1
100
AcDbArc
50
56.852633914138721
51
236.85263391413918
0
ARC
5
305
100
AcDbEntity
8
0
100
AcDbCircle
10
130.17292099178977
20
-90.893199350149615
30
0
40
0.99999999999999545
210
0
220
0
230
1
100
AcDbArc
50
-123.14736608586036
51
56.852633914138266
0
LINE
5
306
100
AcDbEntity
8
0
100
AcDbLine
10
130.71971530328005
20
-90.05593237903355
30
0
11
122.36255499999929
21
-84.598118000001094
31
0
0
LINE
5
307
100
AcDbEntity
8
0
100
AcDbLine
10
120.0741679784046
20
-85.4923644231053
30
0
11
129.62612668029951
21
-91.730466321265681
31
0
0
LINE
5
308
100
AcDbEntity
8
0
100
AcDbLine
10
132.97519456476377
20
-93.917643567226776
30
0
11
135.69280164022419
21
-95.692432423099945
31
0
0
LINE
5
309
100
AcDbEntity
8
0
100
AcDbLine
10
137.215576
20
-94.298186999999999
30
0
11
134.06878318774432
21
-92.243109624994645
31
0
0
ARC
5
310
100
AcDbEntity
8
0
100
AcDbCircle
10
144.44935862967648
20
-92.097191806882179
30
0
40
1.0000000000000153
210
0
220
0
230
1
100
AcDbArc
50
-134.99999436934849
51
45.000005630652687
0
ARC
5
311
100
AcDbEntity
8
0
100
AcDbCircle
10
147.27778603238187
20
-94.925618653669176
30
0
40
1.0000000000000029
210
0
220
-0
230
1
100
AcDbArc
50
45.000005630652687
51
225.00000563065268
0
LINE
5
312
100
AcDbEntity
8
0
100
AcDbLine
10
138.03430763063935
20
-84.267928645309411
30
0
11
145.15646534137321
21
-91.39008495620584
31
0
0
LINE
5
313
100
AcDbEntity
8
0
100
AcDbLine
10
143.74225191797973
20
-92.804298657558519
30
0
11
142.417269
21
-91.479315999999997
31
0
0
LINE
5
314
100
AcDbEntity
8
0
100
AcDbLine
10
147.98489274407859
20
-94.218511802992836
30
0
11
148.89529803912887
21
-95.12891691910589
31
0
0
LINE
5
315
100
AcDbEntity
8
0
100
AcDbLine
10
147.50511300020165
20
-96.567159000202111
30
0
11
146.57067932068512
21
-95.632725504345544
31
0
0
ARC
5
316
100
AcDbEntity
8
0
100
AcDbCircle
10
87.049349606792362
20
-98.162176999999019
30
0
40
0.99999899999982489
210
0
220
-0
230
1
100
AcDbArc
50
89.999999999991857
51
270.00000000000648
0
ARC
5
317
100
AcDbEntity
8
0
100
AcDbCircle
10
83.049349606792347
20
-98.162176999998991
30
0
40
0.99999900000032227
210
0
220
0
230
1
100
AcDbArc
50
-89.999999999992667
51
89.999999999992667
0
LINE
5
318
100
AcDbEntity
8
0
100
AcDbLine
10
75.611244999999968
20
-97.162177999997752
30
0
11
83.049349606792475
21
-97.16217799999869
31
0
0
LINE
5
319
100
AcDbEntity
8
0
100
AcDbLine
10
83.049349606792475
20
-99.16217599999932
30
0
11
77.630606999999998
21
-99.162176000000017
31
0
0
LINE
5
320
100
AcDbEntity
8
0
100
AcDbLine
10
87.049349606792504
20
-97.162177999999187
30
0
11
93.522137999999998
21
-97.162178000000011
31
0
0
LINE
5
321
100
AcDbEntity
8
0
100
AcDbLine
10
93.552096000000006
20
-99.162175999997999
30
0
11
87.049349606792475
21
-99.162175999998823
31
0
0
LINE
5
322
100
AcDbEntity
8
0
100
AcDbLine
10
75.641213999999849
20
-114.56217599998773
30
0
11
78.975232092995398
21
-114.56217599997727
31
0
0
LINE
5
323
100
AcDbEntity
8
0
100
AcDbLine
10
78.975232092994702
20
-116.56217600000743
30
0
11
75.630638000012425
21
-116.56217600001334
31
0
0
LINE
5
324
100
AcDbEntity
8
0
100
AcDbLine
10
112.11500626534618
20
-114.56224599998224
30
0
11
118.00550700000001
21
-114.562246
31
0
0
LINE
5
325
100
AcDbEntity
8
0
100
AcDbLine
10
108.11500626534621
20
-114.56224599997017
30
0
11
102.08401800000001
21
-114.56224599995198
31
0
0
LINE
5
326
100
AcDbEntity
8
0
100
AcDbLine
10
112.11500612385237
20
-116.56217600000716
30
0
11
128.85392300348525
21
-116.56217600000716
31
0
0
LINE
5
327
100
AcDbEntity
8
0
100
AcDbLine
10
132.85392314498174
20
-116.56217600000716
30
0
11
150.38661773576254
21
-116.56217600001334
31
0
0
LINE
5
328
100
AcDbEntity
8
0
100
AcDbLine
10
128.85392314498637
20
-114.56217699994164
30
0
11
122.64121199999883
21
-114.56217699991065
31
0
0
LINE
5
329
100
AcDbEntity
8
0
100
AcDbLine
10
132.85392314498139
20
-114.56217699996159
30
0
11
140.55210500000001
21
-114.56217700000002
31
0
0
LWPOLYLINE
5
330
100
AcDbEntity
8
0
100
AcDbPolyline
90
4
70
1
43
0.0
10
82.975232092995398
20
-114.56217600000743
42
0.99999999999999989
10
82.975232092994702
20
-116.56217600000743
10
87.975232092994702
20
-116.56217600000743
42
0.99999999999999989
10
87.975232092995412
20
-114.56217599997727
0
ARC
5
331
100
AcDbEntity
8
0
100
AcDbCircle
10
78.975232092994702
20
-115.56217599999235
30
0
40
1.0000000000150777
210
0
220
0
230
1
100
AcDbArc
50
-90
51
89.99999999996011
0
ARC
5
332
100
AcDbEntity
8
0
100
AcDbCircle
10
112.11500626534317
20
-115.56220981574818
30
0
40
0.99996381576593407
210
0
220
-0
230
1
100
AcDbArc
50
89.999999999827381
51
269.99999189286467
0
ARC
5
333
100
AcDbEntity
8
0
100
AcDbCircle
10
108.11500626534317
20
-115.56221099998871
30
0
40
0.99996500001845334
210
0
220
0
230
1
100
AcDbArc
50
-90.000002503403394
51
89.999999999825761
0
ARC
5
334
100
AcDbEntity
8
0
100
AcDbCircle
10
132.85392314498137
20
-115.56217649998437
30
0
40
0.99999950002278126
210
0
220
-0
230
1
100
AcDbArc
50
89.99999999999838
51
270.00000000002115
0
ARC
5
335
100
AcDbEntity
8
0
100
AcDbCircle
10
128.85392314498137
20
-115.56217649997441
30
0
40
0.99999950003275662
210
0
220
0
230
1
100
AcDbArc
50
-90.000008107134349
51
89.999999999713395
0
ARC
5
336
100
AcDbEntity
8
0
100
AcDbCircle
10
111.62729722696292
20
-98.162245999994369
30
0
40
1.0000000000015241
210
0
220
-0
230
1
100
AcDbArc
50
89.999999999827381
51
270.00000000002444
0
ARC
5
337
100
AcDbEntity
8
0
100
AcDbCircle
10
107.62729722696292
20
-98.16224599999606
30
0
40
0.99999999999642597
210
0
220
0
230
1
100
AcDbArc
50
-89.999999999975572
51
89.999999999827381
0
ARC
5
338
100
AcDbEntity
8
0
100
AcDbCircle
10
132.43790155290475
20
-98.162211499994243
30
0
40
0.99996550000144069
210
0
220
-0
230
1
100
AcDbArc
50
90
51
270.00000000003092
0
ARC
5
339
100
AcDbEntity
8
0
100
AcDbCircle
10
128.43790155290475
20
-98.162211499995422
30
0
40
0.99996550000261308
210
0
220
0
230
1
100
AcDbArc
50
-89.999999999931603
51
90
0
LINE
5
340
100
AcDbEntity
8
0
100
AcDbLine
10
128.43790155290594
20
-99.162176999998039
30
0
11
124.630605
21
-99.162177000000014
31
0
0
LINE
5
341
100
AcDbEntity
8
0
100
AcDbLine
10
140.55209400000001
20
-99.162176999991829
30
0
11
132.43790155290529
21
-99.162176999996007
31
0
0
LINE
5
342
100
AcDbEntity
8
0
100
AcDbLine
10
119.99489999999992
20
-99.16224599999228
30
0
11
111.62729722696335
21
-99.162245999992479
31
0
0
LINE
5
343
100
AcDbEntity
8
0
100
AcDbLine
10
107.62729722696335
20
-99.162245999992479
30
0
11
102.084007
21
-99.162245999999996
31
0
0
LINE
5
344
100
AcDbEntity
8
0
100
AcDbLine
10
107.62729722696594
20
-97.162245999992848
30
0
11
102.00199999999926
21
-97.162245999992862
31
0
0
LINE
5
345
100
AcDbEntity
8
0
100
AcDbLine
10
111.62729722696594
20
-97.162245999992848
30
0
11
128.43790155290475
21
-97.162245999992805
31
0
0
LINE
5
346
100
AcDbEntity
8
0
100
AcDbLine
10
132.43790155290475
20
-97.162245999992805
30
0
11
135.25536619103198
21
-97.162245999992805
31
0
0
LINE
5
347
100
AcDbEntity
8
0
100
AcDbLine
10
137.79999299999662
20
-71.097785819654689
30
0
11
137.79999299999673
21
-69.249708757147374
31
0
0
LINE
5
348
100
AcDbEntity
8
0
100
AcDbLine
10
144.2366186661657
20
-80.776708757147333
30
0
11
150.38661773577078
21
-80.776708757147333
31
0
0
ARC
5
349
100
AcDbEntity
8
0
100
AcDbCircle
10
95.322126999998034
20
-86.762078000000017
30
0
40
0.99999999235493919
210
-0
220
0
230
1
100
AcDbArc
50
2.3594304861265738
51
180
0
ARC
5
350
100
AcDbEntity
8
0
100
AcDbCircle
10
95.32212699999863
20
-82.762078000000017
30
0
40
1.0000000002820735
210
0
220
0
230
1
100
AcDbArc
50
179.9986367600728
51
360
0
LINE
5
351
100
AcDbEntity
8
0
100
AcDbLine
10
94.322126999999625
20
-82.762054206970802
30
0
11
94.322131755637386
21
-82.562178000226311
31
0
0
ARC
5
352
100
AcDbEntity
8
0
100
AcDbCircle
10
97.120581973018844
20
-86.687976037557547
30
0
40
0.79998094943891673
210
0
220
0
230
1
100
AcDbArc
50
182.35943048612594
51
231.8365581802239
0
ARC
5
353
100
AcDbEntity
8
0
100
AcDbCircle
10
97.122107966344643
20
-82.762078000001026
30
0
40
0.79998096634700122
210
0
220
-0
230
1
100
AcDbArc
50
51.836558180224742
51
180
0
ARC
5
354
100
AcDbEntity
8
0
100
AcDbCircle
10
102.0019999999991
20
-84.562146502973576
30
0
40
0.8000314970239959
210
0
220
0
230
1
100
AcDbArc
50
231.83655818022731
51
270.0000000000112
0
LINE
5
355
100
AcDbEntity
8
0
100
AcDbLine
10
101.50765506163111
20
-85.191172319725496
30
0
11
97.616421681461446
21
-82.133091913060383
31
0
0
LINE
5
356
100
AcDbEntity
8
0
100
AcDbLine
10
96.626268263627139
20
-87.316962117213308
30
0
11
100.69977617823581
21
-90.51829021116518
31
0
0
ARC
5
357
100
AcDbEntity
8
0
100
AcDbCircle
10
99.887598484495626
20
-91.551740131455986
30
0
40
1.3144015155036293
210
0
220
-0
230
1
100
AcDbArc
50
0
51
51.836558180224742
0
LINE
5
358
100
AcDbEntity
8
0
100
AcDbLine
10
101.20199999999926
20
-91.551740131455986
30
0
11
101.20199999999926
21
-96.362245999993078
31
0
0
ARC
5
359
100
AcDbEntity
8
0
100
AcDbCircle
10
91.975232092994702
20
-115.56217600000743
30
0
40
0.99999999999999645
210
0
220
-0
230
1
100
AcDbArc
50
89.99999999996011
51
270
0
LINE
5
360
100
AcDbEntity
8
0
100
AcDbLine
10
91.975232092994702
20
-116.56217600000743
30
0
11
108.11500622165207
21
-116.56217600000716
31
0
0
LINE
5
361
100
AcDbEntity
8
0
100
AcDbLine
10
91.975232092995398
20
-114.56217600000743
30
0
11
93.552107000000007
21
-114.56217600000001
31
0
0
ENDSEC
0
SECTION
2
OBJECTS
0
DICTIONARY
5
C
100
AcDbDictionary
3
ACAD_GROUP
350
D
3
ACAD_MLINESTYLE
350
17
0
DICTIONARY
5
D
100
AcDbDictionary
0
DICTIONARY
5
1A
330
C
100
AcDbDictionary
0
DICTIONARY
5
17
100
AcDbDictionary
0
ENDSEC
0
EOF
